<?xml version="1.0" encoding="utf-8"?>
<!-- Generator: Adobe Illustrator 25.1.0, SVG Export Plug-In . SVG Version: 6.00 Build 0)  -->
<svg version="1.1" id="Capa_1" xmlns="http://www.w3.org/2000/svg" xmlns:xlink="http://www.w3.org/1999/xlink" x="0px" y="0px"
	 viewBox="0 0 1200 406" style="enable-background:new 0 0 1200 406;" xml:space="preserve">
<style type="text/css">
	.st0{fill:#FF6900;}
</style>
<g>
	<path class="st0" d="M152.3,297.8l-5.2-34.5h-36.7l-5.2,34.5H77.8l30.5-190.4H152l30.5,190.4H152.3z M143.1,237.4l-14.4-96.3
		l-14.4,96.3H143.1z"/>
	<path class="st0" d="M248,239.3v58.5h-29.9V107.4H248v83l39.2-83h29.9l-41.6,84.9l41.6,105.5h-30.7l-29.1-75.9L248,239.3z"/>
	<path class="st0" d="M419.1,297.8l-5.2-34.5h-36.7l-5.2,34.5h-27.5L375,107.4h43.8l30.5,190.4H419.1z M409.9,237.4l-14.4-96.3
		L381,237.4H409.9z"/>
	<path class="st0" d="M532.3,107.4c29.9,0,44.6,16.6,44.6,47.1v96.3c0,30.5-14.7,47.1-44.6,47.1h-47.3V107.4H532.3z M514.9,270.6
		h16.9c9.5,0,15.2-4.9,15.2-18.5v-99c0-13.6-5.7-18.5-15.2-18.5h-16.9V270.6z"/>
	<path class="st0" d="M688.6,187.6v27.2h-41.1v55.8h51.7v27.2h-81.6V107.4h81.6v27.2h-51.7v53H688.6z"/>
	<path class="st0" d="M823.3,107.4h41.6v190.4h-28.3V161.2l-20.7,136.5h-28.3l-22.3-134.6v134.6h-26.1V107.4h41.6l22,135.2
		L823.3,107.4z"/>
	<path class="st0" d="M937,254.2c0,13.6,6,18.5,15.5,18.5s15.5-4.9,15.5-18.5V107.4h28.3v145c0,30.5-15.2,47.9-44.6,47.9
		c-29.4,0-44.6-17.4-44.6-47.9v-145H937V254.2z"/>
	<path class="st0" d="M1078.7,105.2c29.1,0,44.1,17.4,44.1,47.9v6h-28.3v-7.9c0-13.6-5.4-18.8-15-18.8s-15,5.2-15,18.8
		c0,39.2,58.5,46.5,58.5,100.9c0,30.5-15.2,47.9-44.6,47.9c-29.4,0-44.6-17.4-44.6-47.9v-11.7h28.3V254c0,13.6,6,18.5,15.5,18.5
		s15.5-4.9,15.5-18.5c0-39.2-58.5-46.5-58.5-100.9C1034.6,122.6,1049.6,105.2,1078.7,105.2z"/>
</g>
</svg>
