<?xml version="1.0" encoding="utf-8"?>
<!-- Generator: Adobe Illustrator 24.2.0, SVG Export Plug-In . SVG Version: 6.00 Build 0)  -->
<svg version="1.1" id="Capa_1" xmlns="http://www.w3.org/2000/svg" xmlns:xlink="http://www.w3.org/1999/xlink" x="0px" y="0px"
	 viewBox="0 0 1500 612" style="enable-background:new 0 0 1500 612;" xml:space="preserve">
<style type="text/css">
	.st0{fill:#622580;}
	.st1{fill:#696A78;}
</style>
<g>
	<g>
		<g>
			<path class="st0" d="M1263,132h168.5c0-26.8-21.7-48.5-48.5-48.5h-119.4c-39.9,0-73.3,31.5-74,71.4
				c-0.7,40.8,32.2,74.2,72.8,74.2h95.8c13.6,0,25.1,11.1,24.8,24.7c-0.2,13.2-11,23.8-24.3,23.8h-169.2c0,26.8,21.7,48.5,48.5,48.5
				h119.4c39.8,0,73.2-31.5,74-71.3c0.8-40.8-32.1-74.2-72.7-74.2h-96.4c-13.2,0-24.1-10.7-24.3-23.8
				C1237.8,143,1249.4,132,1263,132"/>
			<path class="st0" d="M1094,83.4H924.8v194.1V326v0H1094c40.1,0,72.8-32.7,72.8-72.8c0-18.6-7-35.6-18.6-48.5
				c11.6-12.9,18.6-29.9,18.6-48.5C1166.8,116.1,1134.2,83.4,1094,83.4 M973.4,131.9H1094c13.4,0,24.3,10.9,24.3,24.3
				c0,13.2-10.6,24-23.8,24.3c-0.2,0-0.3,0-0.5,0h-24.2v0h-96.4V131.9z M1094,277.5H973.4V229H1094c0.2,0,0.3,0,0.5,0
				c13.2,0.3,23.8,11,23.8,24.3C1118.3,266.6,1107.4,277.5,1094,277.5"/>
			<path class="st0" d="M588.9,84.4v217.1c0,13.5,10.9,24.5,24.5,24.5h24.1V84.4H588.9z"/>
			<path class="st0" d="M732.9,277.5c-13.4,0-24.2-10.8-24.3-24.1c0.1-13.4,11-24.3,24.5-24.3h96.2c40.6,0,73.6-33.4,72.8-74.2
				c-0.8-39.9-34.2-71.4-74-71.4h-95.1c-40.2,0-72.8,32.6-72.8,72.8v97c0,40.2,32.6,72.8,72.8,72.8h120.7
				c26.8,0,48.5-21.7,48.5-48.5H732.9z M708.7,156.2c0-13.4,10.9-24.3,24.3-24.3h96.4c13.4,0,24.3,10.9,24.3,24.3
				s-10.9,24.3-24.3,24.3H708.7V156.2z"/>
		</g>
		<g>
			<g>
				<path class="st1" d="M623.4,499.4c-12.2,0-20.5-0.5-24.9-1.2c-1.4-0.3-2.6-1.5-2.6-2.9V388.8c0-1.4,1.2-2.6,2.6-2.9
					c4.4-0.8,12.8-1.2,24.9-1.2c25.9,0,44.4,12.3,44.4,47.9v18.9C667.8,486.4,649.2,499.4,623.4,499.4z M661.1,432.6
					c0-32.4-16.4-42-37.7-42c-8.8,0-14.1,0.5-20.8,0.9v101.3c6.7,0.5,12,0.6,20.8,0.6c21.3,0,37.7-9.9,37.7-42V432.6z"/>
				<path class="st1" d="M692.9,401.7H692c-1.5,0-2.9-1.2-2.9-2.9v-11.3c0-1.5,1.4-2.9,2.9-2.9h0.9c1.5,0,2.9,1.4,2.9,2.9v11.3
					C695.8,400.5,694.4,401.7,692.9,401.7z M692.9,499.4H692c-1.5,0-2.9-1.4-2.9-2.9v-76.8c0-1.5,1.4-2.9,2.9-2.9h0.9
					c1.5,0,2.9,1.4,2.9,2.9v76.8C695.8,498,694.4,499.4,692.9,499.4z"/>
				<path class="st1" d="M779.4,423.3h-7.9c3,2.4,8.4,7.8,8.4,18.9v1.2c0,13.8-7.6,24.8-31.5,24.8c-7.9,0-12.9-1.2-18.6-3.5
					c-3.2,1.4-5.2,3.5-5.2,6.5c0,2,0.9,3.8,4.4,4.7l27.4,7.1c15.7,4.1,24.3,7.8,24.3,20.8v1.1c0,13.7-8.2,23.6-32.2,23.6
					c-23.4,0-32.2-9.7-32.2-23.6v-1.4c0-10.6,6.4-18.9,11.4-21.9l-1.1-0.3c-5.6-1.7-8.1-5.6-8.1-10.2c0-3.7,2-7.8,6.4-9.7
					c-5-4.1-7.9-10-7.9-18.1v-1.2c0-11.7,5.3-25.4,31.3-25.4h31c1.5,0,2.9,0.9,2.9,2.4v1.7C782.3,422.6,780.9,423.3,779.4,423.3z
					 M774.1,503.9c0-8.5-4-11.1-19.2-15.1l-21-5.5c-6.7,4.4-11.1,10-11.1,20.2v1.4c0,11,6.2,17.9,25.7,17.9
					c20.2,0,25.6-6.7,25.6-17.9V503.9z M773.3,442.2c0-11-5.2-19.6-24.9-19.6c-21,0-24.6,9.9-24.6,19.6v1.2c0,7.6,3.8,19,24.6,19
					c20.1,0,24.9-8.5,24.9-19V442.2z"/>
				<path class="st1" d="M805.1,401.7h-0.9c-1.5,0-2.9-1.2-2.9-2.9v-11.3c0-1.5,1.4-2.9,2.9-2.9h0.9c1.5,0,2.9,1.4,2.9,2.9v11.3
					C808,400.5,806.7,401.7,805.1,401.7z M805.1,499.4h-0.9c-1.5,0-2.9-1.4-2.9-2.9v-76.8c0-1.5,1.4-2.9,2.9-2.9h0.9
					c1.5,0,2.9,1.4,2.9,2.9v76.8C808,498,806.7,499.4,805.1,499.4z"/>
				<path class="st1" d="M869.3,498.9c-2.3,0.3-5.3,0.5-7.9,0.5c-10.8,0-17.2-3.3-17.2-16.4V423h-15.1c-1.7,0-2.9-0.9-2.9-2.4v-1.5
					c0-1.5,1.2-2.3,2.9-2.3h15.1v-15.7c0-1.5,0.9-2.9,2.6-2.9h1.7c1.5,0,2.4,1.4,2.4,2.9v15.7H869c1.7,0,2.9,0.8,2.9,2.3v1.5
					c0,1.5-1.2,2.4-2.9,2.4h-18.1v59.9c0,9.1,3.8,10.5,10.5,10.5h7.3c2.3,0,3.2,0.8,3.2,2.1v0.9
					C871.9,497.7,871.5,498.6,869.3,498.9z"/>
				<path class="st1" d="M938.5,498.5h-0.8c-1.7,0-3-1.4-3-3v-3.8c-7.5,4.1-16.4,7.8-25.9,7.8c-11.4,0-23.3-5.5-23.3-24.5v-2
					c0-15.7,9.9-23.4,37.6-23.4h11.7V444c0-15.8-4.4-22.1-19.2-22.1c-10,0-14.4,0.6-21.6,1.4c-1.5,0.2-3.5,0-3.5-2.3v-0.9
					c0-2,1.2-2.4,3.5-2.7c6.4-0.8,11.6-1.4,21.6-1.4c20.5,0,25.9,11.6,25.9,28v51.4C941.6,497.1,940.2,498.5,938.5,498.5z
					 M934.9,455.4h-11.7c-23,0-30.9,4.6-30.9,17.5v2c0,14.1,7.5,18.6,16.6,18.6c8.5,0,15.8-2.3,26-7.8V455.4z"/>
				<path class="st1" d="M968.5,499.4H967c-1.5,0-2.6-1.4-2.6-2.9V388.3c0-1.5,1.1-2.9,2.6-2.9h1.5c1.5,0,2.6,1.4,2.6,2.9v108.1
					C971.1,498,970,499.4,968.5,499.4z"/>
				<path class="st1" d="M1052.9,499.4c-9.9,0-17.5-0.8-22.2-1.5c-2.7-0.5-4.1-1.1-4.1-3.2V494c0-2.4,1.8-2.7,3.5-2.6
					c4.9,0.6,14.4,1.5,22.8,1.5c23,0,28.3-10.2,28.3-22.7c0-11.3-6.5-15.2-23.4-25.7l-9.6-5.9c-13.8-8.5-23.9-15.7-23.9-30.4
					c0-18.7,17.8-23.6,35.6-23.6c6.4,0,16.7,0.8,21.1,1.4c3,0.3,4.1,1.1,4.1,3v0.8c0,2.3-1.7,2.7-4.7,2.4
					c-1.4-0.2-14.1-1.2-20.7-1.2c-20.1,0-28.6,5.9-28.6,17.2c0,10.8,7,16.3,20.5,24.5l9.7,5.9c17.9,10.8,26.8,17.6,26.8,31.6
					C1088.2,484.2,1082.3,499.4,1052.9,499.4z"/>
				<path class="st1" d="M1153.5,498c-6.4,0.8-13.5,1.4-18.4,1.4c-21.7,0-30.1-16.9-30.1-36.8v-10.2c0-20.2,8.4-36.4,30.1-36.4
					c4.9,0,12,0.6,18.4,1.4c2.3,0.3,2.9,1.1,2.9,2.7v1.1c0,1.7-1.4,2.4-3.2,2.1c-7.1-0.9-13.1-1.4-18.1-1.4
					c-17.3,0-23.4,12-23.4,30.4v10.2c0,18.4,6.1,30.9,23.4,30.9c5,0,11-0.5,18.1-1.4c1.8-0.3,3.2,0.5,3.2,2.1v1.1
					C1156.4,496.9,1155.8,497.7,1153.5,498z"/>
				<path class="st1" d="M1227.4,499.4h-1.5c-1.5,0-2.4-1.4-2.4-2.9v-51.3c0-14.9-6.2-23.3-22.5-23.3c-6.5,0-14.8,1.1-20.5,2.7v71.8
					c0,1.5-1.1,2.9-2.6,2.9h-1.5c-1.5,0-2.6-1.4-2.6-2.9V388.3c0-1.5,1.1-2.9,2.6-2.9h1.5c1.5,0,2.6,1.4,2.6,2.9v30.4
					c5.9-1.5,13.8-2.7,20.5-2.7c21.1,0,29.1,12.2,29.1,29.2v51.3C1230,498,1229.1,499.4,1227.4,499.4z"/>
				<path class="st1" d="M1279.6,499.4c-20.8,0-31.3-13.4-31.3-36.4v-10.6c0-23,10.5-36.4,31.3-36.4s31.3,13.4,31.3,36.4V463
					C1310.9,486,1300.4,499.4,1279.6,499.4z M1304.2,452.4c0-18.7-6.8-30.4-24.6-30.4c-17.8,0-24.6,11.7-24.6,30.4V463
					c0,18.7,6.8,30.4,24.6,30.4c17.8,0,24.6-11.7,24.6-30.4V452.4z"/>
				<path class="st1" d="M1359,499.4c-20.8,0-31.3-13.4-31.3-36.4v-10.6c0-23,10.5-36.4,31.3-36.4s31.3,13.4,31.3,36.4V463
					C1390.3,486,1379.8,499.4,1359,499.4z M1383.6,452.4c0-18.7-6.8-30.4-24.6-30.4c-17.8,0-24.6,11.7-24.6,30.4V463
					c0,18.7,6.8,30.4,24.6,30.4c17.8,0,24.6-11.7,24.6-30.4V452.4z"/>
				<path class="st1" d="M1415,499.4h-1.5c-1.5,0-2.6-1.4-2.6-2.9V388.3c0-1.5,1.1-2.9,2.6-2.9h1.5c1.5,0,2.6,1.4,2.6,2.9v108.1
					C1417.6,498,1416.5,499.4,1415,499.4z"/>
			</g>
		</g>
	</g>
	<g>
		<g>
			<path class="st0" d="M226.8,92.6c-25.5,34.8-48.9,69.7-70.2,104.8c-21.3,35.1-40,68.4-56.3,99.8c-3.3,6.3-5.5,12-6.7,17.2
				c-1.1,5.2-1.7,10-1.7,14.4c0,7,2,13.1,6.1,18.3c1.8,1.1,2.2,2.5,1.1,4.2c-1.1,1.7-2.2,1.8-3.3,0.3c-6.3-8.1-11.6-14.9-16.1-20.2
				c-4.4-5.4-6.7-11.2-6.7-17.5c0-8.1,2-16.3,6.1-24.4c5.2-10.7,12.1-23.5,20.8-38.3c8.7-14.8,18.1-30.1,28.3-46
				c10.2-15.9,20.7-31.8,31.6-47.7c10.9-15.9,21-30.3,30.2-43.3c0.4-0.4,0.6-0.7,0.6-1.1v-0.6c0-0.4-0.2-0.7-0.6-1.1
				c-1.1,0-1.9,0.4-2.2,1.1c-7,4.1-15,8.9-23.8,14.4c-8.9,5.5-18.2,11.4-28,17.5c-9.8,6.1-19.8,12.3-29.9,18.6
				c-10.2,6.3-20.1,12.4-29.7,18.3c-0.7-1.1-1.3-2.4-1.7-3.9c-0.4-1.5-0.6-3.3-0.6-5.5c8.5-4.4,18.3-9.7,29.4-15.8
				c11.1-6.1,22.5-12.7,34.1-19.7c11.6-7,23.1-14,34.4-21.1c11.3-7,21.2-13.5,29.7-19.4c3.7-0.7,7.7-1.5,11.9-2.2
				c4.2-0.7,8.2-1.7,11.9-2.8L226.8,92.6z"/>
			<path class="st0" d="M432.5,139.7c0,12.2-2.1,25.7-6.4,40.5c-4.3,14.8-10.1,29.8-17.5,44.9c-7.4,15.2-16.2,29.8-26.3,43.8
				c-10.2,14.1-21.3,26.5-33.3,37.4c-12,10.9-24.8,19.7-38.3,26.3c-13.5,6.7-27.3,10-41.3,10c-5.2,0-10.9-0.6-17.2-1.7
				c-6.3-1.1-12.1-3.3-17.5-6.7c-5.4-3.3-9.9-8.1-13.6-14.4c-3.7-6.3-5.5-14.6-5.5-25c0-10,1.8-20.7,5.3-32.2
				c3.5-11.5,8.3-23.2,14.4-35.2c6.1-12,13.4-24.1,21.9-36.3c8.5-12.2,17.7-23.8,27.7-34.9c4.8-5.2,11.5-11.3,20-18.3
				c8.5-7,17.4-12.4,26.6-16.1c5.5-2.2,11.7-4.8,18.6-7.8c6.8-3,13.7-5.9,20.5-8.9c6.8-3,13.2-5.7,19.1-8.3
				c5.9-2.6,10.5-4.8,13.9-6.7c2.6,0.4,5.5,1.4,8.9,3c3.3,1.7,6.5,4.4,9.4,8.3c3,3.9,5.5,8.9,7.5,15
				C431.5,122.8,432.5,130.5,432.5,139.7z M408.1,153c0-11.5-1.8-21.7-5.3-30.8c-3.5-9.1-10.3-13.6-20.2-13.6
				c-2.6,0-6.7,0.6-12.2,1.9c-5.5,1.3-11.7,3.6-18.6,6.9c-6.8,3.3-14.1,7.8-21.9,13.3c-7.8,5.5-15.3,12.6-22.7,21.1
				c-12.6,14.1-22.9,27.8-31.1,41.3c-8.1,13.5-14.6,26.3-19.4,38.3c-4.8,12-8,22.9-9.7,32.7c-1.7,9.8-2.5,18-2.5,24.7
				c0,14.1,3.3,25.1,10,33c6.7,8,15.5,11.9,26.6,11.9c15.2,0,30.2-4.9,45.2-14.7c15-9.8,28.6-23,40.8-39.7
				c12.2-16.6,22.1-35.9,29.7-57.7C404.3,200,408.1,177.1,408.1,153z"/>
		</g>
		<g>
			<path d="M136.8,460H92.3L77,498.7h-8.5l44.1-110.1h4.9l43.2,110.1H152L136.8,460z M95,453.1h39.2l-14.9-39.5
				c-1.3-3.1-2.8-7.4-4.5-12.9c-1.4,4.8-2.8,9.1-4.4,13L95,453.1z"/>
			<path d="M231.1,498.7v-52.9c0-8.2-1.7-14.2-5.2-17.9c-3.4-3.7-8.8-5.6-16-5.6c-9.7,0-16.9,2.5-21.4,7.4c-4.5,4.9-6.8,12.9-6.8,24
				v45h-7.4v-81.5h6.3l1.4,11.2h0.5c5.3-8.5,14.7-12.7,28.3-12.7c18.5,0,27.7,9.9,27.7,29.8v53.3H231.1z M219.1,405.5
				c-1.8,0-3.7-0.5-5.6-1.4c-1.9-0.9-4.5-2.7-7.6-5.4c-1.6-1.3-3.2-2.4-4.7-3.4c-1.5-1-3.1-1.5-4.7-1.5c-2.2,0-4.1,0.9-5.6,2.6
				c-1.5,1.7-2.7,4.8-3.6,9.1h-5.5c0.5-5.5,2.1-9.9,4.7-13.1c2.6-3.2,6.1-4.8,10.3-4.8c2.4,0,4.6,0.6,6.6,1.9c2,1.2,4,2.7,6.1,4.4
				c1.7,1.4,3.3,2.7,4.9,3.8c1.6,1.1,3.1,1.6,4.6,1.6c2.3,0,4.2-0.9,5.8-2.7c1.6-1.8,2.7-4.8,3.6-9h5.7c-0.8,5.8-2.5,10.2-5.2,13.3
				C226.3,404,223,405.5,219.1,405.5z"/>
			<path d="M332.3,457.8c0,13.3-3.2,23.7-9.7,31.2c-6.4,7.5-15.3,11.2-26.7,11.2c-7.1,0-13.4-1.7-18.9-5.2
				c-5.5-3.4-9.6-8.4-12.5-14.8c-2.9-6.4-4.3-13.9-4.3-22.3c0-13.3,3.2-23.7,9.7-31.1c6.4-7.4,15.3-11.1,26.5-11.1
				c11.2,0,20,3.8,26.4,11.3C329.1,434.4,332.3,444.7,332.3,457.8z M267.9,457.8c0,11.2,2.5,19.9,7.4,26.2
				c4.9,6.3,11.9,9.4,20.9,9.4s16-3.1,20.9-9.4c4.9-6.3,7.4-15,7.4-26.2c0-11.2-2.5-20-7.5-26.2c-5-6.2-12-9.3-21-9.3
				c-9,0-15.9,3.1-20.8,9.3C270.4,437.8,267.9,446.5,267.9,457.8z"/>
			<path d="M405.4,477.5c0,7.3-2.8,12.9-8.3,16.8c-5.5,3.9-13.4,5.9-23.6,5.9c-10.9,0-19.5-1.7-25.9-5v-8c8.2,4.1,16.8,6.1,25.9,6.1
				c8,0,14.2-1.3,18.3-4c4.2-2.7,6.3-6.2,6.3-10.7c0-4.1-1.7-7.5-5-10.3s-8.8-5.5-16.4-8.2c-8.1-3-13.9-5.5-17.2-7.6
				c-3.3-2.1-5.8-4.5-7.5-7.2c-1.7-2.7-2.5-5.9-2.5-9.8c0-6.1,2.6-10.9,7.7-14.5c5.1-3.5,12.3-5.3,21.5-5.3c8.8,0,17.1,1.7,25,4.9
				l-2.8,6.7c-8-3.3-15.4-5-22.3-5c-6.7,0-11.9,1.1-15.8,3.3c-3.9,2.2-5.8,5.2-5.8,9.1c0,4.3,1.5,7.6,4.5,10.2
				c3,2.5,8.9,5.4,17.7,8.5c7.3,2.7,12.7,5,16,7.2c3.3,2.1,5.9,4.5,7.5,7.2C404.5,470.6,405.4,473.8,405.4,477.5z"/>
		</g>
	</g>
	<rect x="495.3" y="85.8" class="st1" width="2.8" height="415.5"/>
</g>
</svg>
