<svg id="Capa_1" data-name="Capa 1" xmlns="http://www.w3.org/2000/svg" xmlns:xlink="http://www.w3.org/1999/xlink" viewBox="0 0 1985.08 689.59"><defs><style>.cls-1{fill:url(#Degradado_sin_nombre_10);}.cls-2{fill:url(#Degradado_sin_nombre_10-2);}.cls-3{fill:url(#Degradado_sin_nombre_10-3);}.cls-4{fill:url(#Degradado_sin_nombre_10-4);}.cls-5{fill:url(#Degradado_sin_nombre_10-5);}</style><linearGradient id="Degradado_sin_nombre_10" x1="250.22" y1="166.88" x2="511.09" y2="166.88" gradientUnits="userSpaceOnUse"><stop offset="0" stop-color="#ee8ad5"/><stop offset="1" stop-color="#8900a1"/></linearGradient><linearGradient id="Degradado_sin_nombre_10-2" x1="225.34" y1="384.51" x2="349.66" y2="141.96" xlink:href="#Degradado_sin_nombre_10"/><linearGradient id="Degradado_sin_nombre_10-3" x1="392.1" y1="565.87" x2="316.63" y2="248.15" xlink:href="#Degradado_sin_nombre_10"/><linearGradient id="Degradado_sin_nombre_10-4" x1="346.6" y1="418.04" x2="495.36" y2="363.8" xlink:href="#Degradado_sin_nombre_10"/><linearGradient id="Degradado_sin_nombre_10-5" x1="1573.78" y1="554" x2="1804.87" y2="554" xlink:href="#Degradado_sin_nombre_10"/></defs><path class="cls-1" d="M445.55,120.2q-38.62-16.51-78.26-16.52-53.87,0-97.3,23.89a191.15,191.15,0,0,0-19.77,12.48c47.71.72,93.48,11.74,133.46,32.56a256.57,256.57,0,0,1,53.5,37,134.38,134.38,0,0,1,17.67,17.63q1.26,1.4,2.49,2.79L503,175l8.12-9.81Q484.17,136.71,445.55,120.2Z"/><path class="cls-2" d="M383.68,172.61c-40-20.82-85.75-31.84-133.46-32.56a175,175,0,0,0-39.83,39.78q-4.63,6.4-8.75,13.28-24.9,41.69-24.9,93.5a198.66,198.66,0,0,0,6.13,49.9,347,347,0,0,1,56.75-79.89,305,305,0,0,1,78.89-59.92l1.27-.79a91.49,91.49,0,0,1,19-8.78,95.38,95.38,0,0,1,30.07-4.69q23.37,0,47.25,13a131.52,131.52,0,0,1,21.11,14.25A256.57,256.57,0,0,0,383.68,172.61Z"/><path class="cls-3" d="M456.48,433c-47.58,8.85-97.06-14.45-140.79-60.4A95.51,95.51,0,0,1,285,338.19q-2.34-4.35-4.25-8.87a111.52,111.52,0,0,1-8.46-43.73q0-28.95,12.71-52.59a95.42,95.42,0,0,1,33.53-36.3,305,305,0,0,0-78.89,59.92,347,347,0,0,0-56.75,79.89,179.77,179.77,0,0,0,85.34,111.18q42.68,24.39,95.53,24.39,39.12,0,79-18a217.84,217.84,0,0,0,66.58-46.17C493.49,420.8,475.79,429.45,456.48,433Z"/><path class="cls-4" d="M457.23,347.08a144.73,144.73,0,0,1-42.68,30.49q-23.9,11.18-45.73,11.18a92.41,92.41,0,0,1-49-13.47c-1.39-.85-2.76-1.73-4.09-2.64,43.73,45.95,93.21,69.25,140.79,60.4,19.31-3.59,37-12.24,52.85-25.17.76-.78,1.52-1.56,2.27-2.36Z"/><rect class="cls-5" x="1573.78" y="528.3" width="231.08" height="51.41"/><path d="M607.57,434.89V134.81h63.91V434.89Z"/><path d="M1000.73,134.81v56h-95.4v244h-63.9v-244H745.57v-56Z"/><path d="M1076.21,434.89V134.81h63.91V434.89Z"/><path d="M1290.15,424.47q-29.18-16.89-42.37-45.84t-13.2-66V134.81h63.91v170q0,38.91,15.7,60.44t54.72,21.53q37.13,0,52.34-21.53t15.24-55.8V134.81h63.9V311.25q0,45.84-17.6,74.79t-47.92,42.14q-30.34,13.2-70.16,13.2Q1319.32,441.38,1290.15,424.47Z"/><path d="M1570.31,405.25,1600,359.41q43.07,27.33,84.28,27.32,26.4,0,41.45-8.33t15-25q0-10.18-4.86-16.9t-17.14-13q-12.27-6.25-36.81-16l-10.65-4.16q-29.65-11.58-47.7-22.23a84,84,0,0,1-28.71-27.32q-10.66-16.68-10.65-42.15,0-28.23,16.2-47t41.68-27.55a164.93,164.93,0,0,1,54.18-8.8,179.82,179.82,0,0,1,53.49,8.57,203.37,203.37,0,0,1,52.56,25.23l-29.92,45.39q-22.1-13.43-39.13-19.45a109.74,109.74,0,0,0-36.81-6q-22.1,0-33.37,7.41t-11.27,19.91a23.18,23.18,0,0,0,4.6,14.12Q1661,229.75,1673,236t34.53,14.58l10.13,3.71q29.44,11.11,47.64,20.84a86.38,86.38,0,0,1,30.62,27.78q12.42,18.06,12.43,46.77,0,30.12-15.75,50.71t-42.83,30.8q-27.09,10.17-61.36,10.19Q1618.94,441.38,1570.31,405.25Z"/><path d="M644.31,528.39a31.93,31.93,0,0,0-8.73-1.32q-6.54,0-10.5,2.59a8,8,0,0,0-4,7.05,9.22,9.22,0,0,0,2.19,6.37,15.46,15.46,0,0,0,5.36,3.86,83.81,83.81,0,0,0,8.73,3.14,75.33,75.33,0,0,1,10.41,3.77,18.42,18.42,0,0,1,6.73,5.41q2.78,3.56,2.77,9.37a14.84,14.84,0,0,1-2.86,9,18.36,18.36,0,0,1-8.05,6,31.13,31.13,0,0,1-11.91,2.13,33.47,33.47,0,0,1-13-2.63,35,35,0,0,1-10.86-7l2.91-5.18a31.3,31.3,0,0,0,9.91,6.55,28.63,28.63,0,0,0,11.09,2.36q7.27,0,11.55-2.95a9.2,9.2,0,0,0,4.27-8,9.69,9.69,0,0,0-2.18-6.55,14.51,14.51,0,0,0-5.36-3.91q-3.2-1.37-8.92-3.18a91.65,91.65,0,0,1-10.36-3.77,17.4,17.4,0,0,1-6.64-5.28,14.42,14.42,0,0,1-2.73-9.13,13.71,13.71,0,0,1,2.73-8.46,17.22,17.22,0,0,1,7.64-5.59,30.43,30.43,0,0,1,11.37-2,36.64,36.64,0,0,1,10.41,1.55,36.25,36.25,0,0,1,9.23,4.09l-2.73,5.36A33.24,33.24,0,0,0,644.31,528.39Z"/><path d="M691.05,521.71h7.82l24.91,47.73,24.64-47.73h7.82v63.65h-5.82l-.09-54.92-24.91,48.1H722l-25-48.1v54.92h-5.91Z"/><path d="M841.89,585.36l-7.54-16.91H799.07l-7.46,16.91h-6.73l28.65-63.56h6.54l28.64,63.56Zm-40.37-22.55h30.37l-15.27-34.37Z"/><path d="M919.27,585.36l-13.73-20.73c-1.94.12-3.42.18-4.45.18H883.63v20.55h-6.27V521.8h23.73q11.91,0,18.41,5.5t6.5,15.59q0,7.92-3.82,13.19a19.84,19.84,0,0,1-10.91,7.36l15.28,21.92Zm-18.18-26.19q9.09,0,14-4.14T920,543.08c0-5.1-1.64-9-4.91-11.64s-7.94-4-14-4H883.63v31.73Z"/><path d="M952.28,521.71h48.28v5.73h-21v57.92h-6.28V527.44h-21Z"/><path d="M1099.67,528.39a31.92,31.92,0,0,0-8.72-1.32q-6.56,0-10.51,2.59a8,8,0,0,0-4,7.05,9.26,9.26,0,0,0,2.18,6.37,15.41,15.41,0,0,0,5.37,3.86,83.5,83.5,0,0,0,8.72,3.14,74.36,74.36,0,0,1,10.41,3.77,18.42,18.42,0,0,1,6.73,5.41,16.34,16.34,0,0,1-.09,18.37,18.38,18.38,0,0,1-8,6,31.18,31.18,0,0,1-11.92,2.13,33.46,33.46,0,0,1-12.95-2.63,34.89,34.89,0,0,1-10.87-7l2.91-5.18a31.41,31.41,0,0,0,9.91,6.55,28.66,28.66,0,0,0,11.09,2.36q7.27,0,11.55-2.95a9.21,9.21,0,0,0,4.28-8,9.69,9.69,0,0,0-2.19-6.55,14.51,14.51,0,0,0-5.36-3.91q-3.18-1.37-8.91-3.18a91.19,91.19,0,0,1-10.37-3.77,17.4,17.4,0,0,1-6.64-5.28,14.48,14.48,0,0,1-2.72-9.13,13.76,13.76,0,0,1,2.72-8.46,17.28,17.28,0,0,1,7.64-5.59,30.47,30.47,0,0,1,11.37-2,36.64,36.64,0,0,1,10.41,1.55,36.25,36.25,0,0,1,9.23,4.09l-2.73,5.36A32.94,32.94,0,0,0,1099.67,528.39Z"/><path d="M1183.78,528.89a26.79,26.79,0,0,0-33.6,11.14,26.77,26.77,0,0,0,0,26.78,26.87,26.87,0,0,0,9.73,9.68,26.24,26.24,0,0,0,13.51,3.59,27,27,0,0,0,10.27-2,29.2,29.2,0,0,0,8.91-5.69l3.82,4.1a36.68,36.68,0,0,1-10.82,6.91,32.14,32.14,0,0,1-12.46,2.54,32.84,32.84,0,0,1-28.5-16.18,31.41,31.41,0,0,1-4.41-16.28,30.66,30.66,0,0,1,4.45-16.18,33.28,33.28,0,0,1,28.65-16,33.86,33.86,0,0,1,23,9.1l-3.73,4.36A28,28,0,0,0,1183.78,528.89Z"/><path d="M1228.33,521.8h6.28v29.1h39.74V521.8h6.27v63.56h-6.27V556.53h-39.74v28.83h-6.28Z"/><path d="M1362.5,525.57a32.81,32.81,0,0,1,12,11.69,30.66,30.66,0,0,1,4.45,16.18,31.16,31.16,0,0,1-4.45,16.28,33.51,33.51,0,0,1-57.47,0,31.16,31.16,0,0,1-4.45-16.28,30.66,30.66,0,0,1,4.45-16.18,33.28,33.28,0,0,1,28.73-16A33.14,33.14,0,0,1,1362.5,525.57Zm-30,4.87a26.71,26.71,0,0,0-9.82,9.64,25.52,25.52,0,0,0-3.64,13.36,26,26,0,0,0,3.64,13.46,26.83,26.83,0,0,0,9.82,9.77,26.28,26.28,0,0,0,13.46,3.6,25.88,25.88,0,0,0,13.32-3.6,26.92,26.92,0,0,0,9.77-9.77,26.12,26.12,0,0,0,3.64-13.46,25.61,25.61,0,0,0-3.64-13.36,26.8,26.8,0,0,0-9.77-9.64,26.13,26.13,0,0,0-13.32-3.55A26.53,26.53,0,0,0,1332.45,530.44Z"/><path d="M1453.43,525.57a32.81,32.81,0,0,1,12,11.69,30.66,30.66,0,0,1,4.45,16.18,31.16,31.16,0,0,1-4.45,16.28,33.51,33.51,0,0,1-57.47,0,31.16,31.16,0,0,1-4.45-16.28,30.66,30.66,0,0,1,4.45-16.18,33.28,33.28,0,0,1,28.73-16A33.14,33.14,0,0,1,1453.43,525.57Zm-30,4.87a26.63,26.63,0,0,0-9.82,9.64,25.52,25.52,0,0,0-3.64,13.36,26,26,0,0,0,3.64,13.46,26.75,26.75,0,0,0,9.82,9.77,26.25,26.25,0,0,0,13.46,3.6,25.91,25.91,0,0,0,13.32-3.6,27,27,0,0,0,9.77-9.77,26.12,26.12,0,0,0,3.64-13.46,25.61,25.61,0,0,0-3.64-13.36,26.87,26.87,0,0,0-9.77-9.64,26.16,26.16,0,0,0-13.32-3.55A26.51,26.51,0,0,0,1423.38,530.44Z"/><path d="M1501.94,521.8h6.27v57.92h28v5.64h-34.28Z"/></svg>