<svg id="Layer_1" data-name="Layer 1" xmlns="http://www.w3.org/2000/svg" viewBox="0 0 1200 455"><defs><style>.cls-1{fill:#ff0;}.cls-2{fill:#ffbc00;}</style></defs><path d="M456,149.64c0,15.31,7.81,24.69,23,24.69,15.61,0,23.42-9.69,23.42-24.69V90.76h26.25v60.6c0,25.47-17.5,47.33-49.67,47.33-31.71,0-49.21-19.84-49.21-47.33V90.76H456Z"/><path d="M581.9,90.76h30.78L653,197H626.42l-7.18-19.52H574.72L567.38,197H540.82Zm-.62,67.48h31.4l-15.31-41.55Z"/><path d="M695.8,132.46V197H669.55V90.76h22.81l53.42,64.51V90.76H772V197H749.37Z"/><path d="M850.76,113.72V197H824.52V113.72H791.88v-23h90.59v23Z"/><path d="M927.32,149.64c0,15.31,7.81,24.69,23,24.69,15.62,0,23.43-9.69,23.43-24.69V90.76H1000v60.6c0,25.47-17.49,47.33-49.67,47.33-31.71,0-49.21-19.84-49.21-47.33V90.76h26.25Z"/><path d="M1122.9,132l-32,38.43h-4.53L1054.49,132v65h-26.25V90.76h22.65l37.8,44.36,37.8-44.36h22.65V197H1122.9Z"/><path d="M455.38,307.69C440,303.93,430.53,295.1,430.53,281c0-16.18,13.57-31.05,43-31.05,15,0,29.92,4.41,38.09,9l-3.43,10.46c-7.52-4.74-22.4-9.15-35-9.15-21.58,0-31.23,9.64-31.23,20.1,0,9.15,6.38,14.38,17.82,17.16l23.71,5.89c19.12,4.74,30.07,12.42,30.07,27.95,0,20.1-17.82,32.85-43.64,32.85-15.69,0-30.57-5.55-37.6-9.8L435.11,344c7,4.25,20.6,10,35,10,19,0,32-8.5,32-21.74,0-9.81-8-15.21-23.05-18.8Z"/><path d="M637.32,346.26c-10,9.48-27.13,18-45.6,18-32.86,0-56.39-21.25-56.39-57,0-36.13,23.53-57.38,56.39-57.38,28.44,0,44.79,16,45.44,42L626.86,294c-.65-20.92-12.75-33.67-35.3-33.67-26.65,0-44.79,17.32-44.79,46.91,0,29.26,18.14,46.58,45.11,46.58,15.69,0,30.73-7.68,39.56-16Z"/><path d="M755.2,311.77H676.9v50.84H665.78V251.46H676.9V301.8h78.3V251.46h11.11V362.61H755.2Z"/><path d="M852.47,249.82c32.86,0,57.38,24.52,57.38,57.38,0,32.53-24.52,57-57.38,57-32.53,0-57-24.51-57-57C795.43,274.34,819.94,249.82,852.47,249.82Zm0,104c27,0,46.43-19.94,46.43-46.58,0-27-19.46-46.75-46.43-46.75-26.48,0-46.09,19.77-46.09,46.75C806.38,333.84,826,353.78,852.47,353.78Z"/><path d="M988.48,249.82c32.86,0,57.38,24.52,57.38,57.38,0,32.53-24.52,57-57.38,57-32.52,0-57-24.51-57-57C931.44,274.34,956,249.82,988.48,249.82Zm0,104c27,0,46.43-19.94,46.43-46.58,0-27-19.45-46.75-46.43-46.75-26.47,0-46.09,19.77-46.09,46.75C942.39,333.84,962,353.78,988.48,353.78Z"/><path d="M1075,362.61V251.46h11.12V352.64H1150v10Z"/><path class="cls-1" d="M124.82,227h9.77a83.54,83.54,0,0,1,.72-10.85A15.63,15.63,0,0,1,124.82,227Z"/><path class="cls-1" d="M124.82,227H98.34C108.5,228.54,117.89,229.35,124.82,227Z"/><path class="cls-2" d="M50.53,224.2c13.2-4,31.49.35,47.81,2.81h26.48a15.63,15.63,0,0,0,10.49-10.85,86.69,86.69,0,0,1,19.45-44.24,52.47,52.47,0,0,1,4.43-5.41,89,89,0,0,1,25.08-17.7A85.3,85.3,0,0,1,296.9,261.44l-2,4.42,61,61,4.43-6.88A169.33,169.33,0,0,0,218.7,58.31a167,167,0,0,0-92.47,27.54,172,172,0,0,0-32,27.54A167.29,167.29,0,0,0,50,227H98.34C82,224.55,63.73,220.24,50.53,224.2Z"/><path d="M305.26,314.06l-2-2H218.7a86.06,86.06,0,0,1-59-25.09,84.11,84.11,0,0,1-25.09-60h-9.77c-8.6-.08-14.07-.08-26.48,0H50a170.46,170.46,0,0,0,71.81,138.7,167,167,0,0,0,96.89,31H386.42l-53.61-53.61Z"/></svg>