<svg id="Layer_1" data-name="Layer 1" xmlns="http://www.w3.org/2000/svg" viewBox="0 0 1200 455"><defs><style>.cls-1{isolation:isolate;}.cls-2{fill:#1d1410;}.cls-3{fill:#003dff;}</style></defs><g class="cls-1"><path class="cls-2" d="M34,229.33q-13.21-14.51-14.38-44.92l33.47-5.65q.48,18.15,5.07,26.76t13.8,8.6q6.82,0,9.9-4.36t3.06-11.2q0-11.31-5.07-19.22T63.91,162L44.1,144.8a75.85,75.85,0,0,1-18-21.21q-6.26-11.32-6.25-27.12,0-23.34,13.79-35.95T71.69,47.91q25.94,0,36.07,15T119.31,101l-33.71,5q-.48-15.08-3.42-22.28T70.51,76.43a11.56,11.56,0,0,0-9.9,4.84A18.81,18.81,0,0,0,57.07,92.7q0,9.43,4.13,15.91t13.08,14.27l19.34,17a104.08,104.08,0,0,1,21.45,25.35q7.79,13.32,7.78,31.24a48.35,48.35,0,0,1-6.13,24.4A43.67,43.67,0,0,1,99.39,237.7q-11.2,6.12-25.82,6.13Q47.17,243.83,34,229.33Z"/><path class="cls-2" d="M152.08,238.87a30.17,30.17,0,0,1-10.72-12.38,36.46,36.46,0,0,1-3.66-15.91q0-15.79,7.78-25.93a55.66,55.66,0,0,1,18.75-15.8,257.17,257.17,0,0,1,29.11-12.26V143.86q0-7.31-2-11.08T184.15,129q-5.19,0-7.31,3.3t-2.59,9.43l-.71,9.43-33.48-1.41q.94-24.28,12.5-35.72t34.65-11.44q20,0,30.18,11.09t10.14,30.4v63.43a254,254,0,0,0,2.36,33.71H198.06q-.94-6.84-3.07-19.57a34.37,34.37,0,0,1-9.55,15.68q-6.72,6.24-16.85,6.25A29.11,29.11,0,0,1,152.08,238.87ZM188,216a22.87,22.87,0,0,0,5.3-5.42V173.1q-11.09,6.36-17,13.2a24.76,24.76,0,0,0-5.9,16.74q0,7.31,2.83,11.32a9.24,9.24,0,0,0,8,4A11.07,11.07,0,0,0,188,216Z"/><path class="cls-2" d="M252.75,50.26h35.36v191H252.75Z"/><path class="cls-2" d="M322.18,231.33Q310.51,219.08,310.51,196V150.22q0-23.08,11.79-35.36t33.95-12.26q22.88,0,33.48,12.26t10.61,36.31V175H345.88v26.41q0,8.72,2.71,12.73a8.93,8.93,0,0,0,7.9,4q10.61,0,10.61-15.31V189.6h33v11.79q0,20.51-11.31,31.35t-32.54,10.85Q333.86,243.59,322.18,231.33ZM367.1,158V144.8q0-9-2.6-12.85t-8.25-3.89q-5.43,0-7.9,4.25t-2.47,15.09V158Z"/><path class="cls-2" d="M431.93,235q-11.55-8.59-17.68-26.52l25-10.37q7.08,21,20,21,5,0,7.43-2.24a8,8,0,0,0,2.47-6.25,15,15,0,0,0-3.42-9.66q-3.4-4.24-13.55-13L439.48,177.1q-11.33-9.66-16.74-17.91t-5.43-19.81a34.52,34.52,0,0,1,5.43-19.21,36.32,36.32,0,0,1,14.73-13,45.52,45.52,0,0,1,20.4-4.6q16.5,0,27.23,9.31T499.83,138l-23.1,10.37a38.3,38.3,0,0,0-6.84-14.5q-4.72-6-11.08-6A9.54,9.54,0,0,0,452,130.3a8.56,8.56,0,0,0-2.59,6.49q0,4,4,8.6a127.8,127.8,0,0,0,12.49,11.91l12.73,11.31a104.85,104.85,0,0,1,17.33,18.16,36.64,36.64,0,0,1,.71,39.84,35.62,35.62,0,0,1-15,12.62,48.4,48.4,0,0,1-20.51,4.36Q443.49,243.59,431.93,235Z"/><path class="cls-2" d="M589.66,229.33q-13.21-14.51-14.38-44.92l33.47-5.65q.48,18.15,5.07,26.76t13.79,8.6q6.84,0,9.91-4.36t3.06-11.2q0-11.31-5.07-19.22T619.6,162L599.79,144.8a75.85,75.85,0,0,1-18-21.21q-6.25-11.32-6.25-27.12,0-23.34,13.79-35.95t38.08-12.61q25.93,0,36.07,15T675,101l-33.72,5q-.48-15.08-3.42-22.28T626.2,76.43a11.56,11.56,0,0,0-9.9,4.84,18.81,18.81,0,0,0-3.54,11.43q0,9.43,4.13,15.91T630,122.88l19.34,17a104.08,104.08,0,0,1,21.45,25.35q7.79,13.32,7.78,31.24a48.25,48.25,0,0,1-6.13,24.4,43.74,43.74,0,0,1-17.33,16.86q-11.21,6.12-25.82,6.13Q602.86,243.83,589.66,229.33Z"/><path class="cls-2" d="M705.65,231.09Q694.1,218.59,694.1,196V150q0-22.86,11.55-35.13t34-12.26q21.93,0,33.13,10.38t11.2,31.11v13H749.74v-13.9q0-9-2.36-12.39t-7.54-3.41q-5.65,0-7.9,4.24t-2.24,14.85v53.76q0,10.6,2.47,14.61a8.38,8.38,0,0,0,7.67,4c3.61,0,6.17-1.25,7.66-3.77s2.24-6.52,2.24-12V186.53h34.19v15.1q0,20.51-11.32,31.23t-33,10.73Q717.21,243.59,705.65,231.09Z"/><path class="cls-2" d="M804.67,50.26h35.6v67.2q14.85-14.86,33.48-14.86,11.55,0,17.68,8.73t6.13,22.39V241.23H862.2V139.38q0-5.65-1.89-8.37c-1.26-1.8-3.38-2.71-6.36-2.71q-5.9,0-13.68,5.89v107h-35.6Z"/><path class="cls-2" d="M930.45,231.8q-11.91-11.79-11.9-34.19v-49q0-22.4,11.9-34.19t34.07-11.79q22.15,0,34.07,11.79t11.9,34.19v49q0,22.41-11.9,34.19t-34.07,11.79Q942.37,243.59,930.45,231.8Zm42.68-17.09q2.24-4.83,2.24-14.5v-54q0-9.66-2.24-14.62t-8.37-4.95c-4.24,0-7.16,1.69-8.73,5.07s-2.35,8.21-2.35,14.5v54q0,9.42,2.35,14.38c1.57,3.3,4.49,4.95,8.73,4.95Q970.88,219.54,973.13,214.71Z"/><path class="cls-2" d="M1041.5,231.8q-11.93-11.79-11.91-34.19v-49q0-22.4,11.91-34.19t34.06-11.79q22.17,0,34.07,11.79t11.91,34.19v49q0,22.41-11.91,34.19t-34.07,11.79Q1053.39,243.59,1041.5,231.8Zm42.67-17.09q2.24-4.83,2.24-14.5v-54q0-9.66-2.24-14.62t-8.37-4.95q-6.37,0-8.72,5.07t-2.36,14.5v54q0,9.42,2.36,14.38t8.72,4.95Q1081.92,219.54,1084.17,214.71Z"/><path class="cls-2" d="M1145.11,50.26h35.36v191h-35.36Z"/></g><path class="cls-2" d="M795,397.54V345H808.1a14.58,14.58,0,0,1,7.55,1.71,10.25,10.25,0,0,1,4.12,4.95,21.81,21.81,0,0,1,1.3,7.84,17.27,17.27,0,0,1-1.47,7.25,10.59,10.59,0,0,1-4.31,4.65,14.05,14.05,0,0,1-7.13,1.65h-5.89v24.46Zm7.37-29.47h3.53a14.41,14.41,0,0,0,5-.7,4.69,4.69,0,0,0,2.6-2.48,13,13,0,0,0,.76-5,23.29,23.29,0,0,0-.53-5.89,4.2,4.2,0,0,0-2.36-2.83,14.87,14.87,0,0,0-5.42-.77h-3.42Z"/><path class="cls-2" d="M835.39,398.07a11.18,11.18,0,0,1-6.54-1.71,9,9,0,0,1-3.42-4.77,24.76,24.76,0,0,1-1-7.31v-10.9a25.16,25.16,0,0,1,1-7.37,9,9,0,0,1,3.42-4.77,11.18,11.18,0,0,1,6.54-1.71,10.87,10.87,0,0,1,6.49,1.71A9.35,9.35,0,0,1,845.3,366a25.5,25.5,0,0,1,1,7.37v10.9a25.1,25.1,0,0,1-1,7.31,9.35,9.35,0,0,1-3.42,4.77A10.87,10.87,0,0,1,835.39,398.07Zm0-5.12a3.26,3.26,0,0,0,2.83-1.18,6.32,6.32,0,0,0,.95-3.07V368.9a6.54,6.54,0,0,0-.95-3.07,3.11,3.11,0,0,0-2.83-1.23,3.29,3.29,0,0,0-2.89,1.23,6.56,6.56,0,0,0-1,3.07v19.8a6.45,6.45,0,0,0,1,3.07A3.46,3.46,0,0,0,835.39,393Z"/><path class="cls-2" d="M856.55,397.54l-5.89-37.48h5.89l3.6,27.88,5-27.65h5.3l5,27.53,3.83-27.53h5.9l-5.9,37.49h-5.89l-5.13-26.47-5.07,26.47Z"/><path class="cls-2" d="M900.7,398.07a11.73,11.73,0,0,1-6.78-1.71,9.18,9.18,0,0,1-3.36-5.06,32.36,32.36,0,0,1-.94-8.2v-8.54a29.43,29.43,0,0,1,1-8.31,8.63,8.63,0,0,1,3.42-5,11.74,11.74,0,0,1,6.66-1.71,10.62,10.62,0,0,1,7,1.94,9.64,9.64,0,0,1,2.95,5.9,46.87,46.87,0,0,1,.71,8.78v3h-14.8v7.55a12.9,12.9,0,0,0,.42,3.71,3.8,3.8,0,0,0,1.35,2.06,4.06,4.06,0,0,0,2.48.71,3.28,3.28,0,0,0,2.36-.76,3.67,3.67,0,0,0,1.06-2.13,14,14,0,0,0,0-3.3v-2.24H911v1.42a14.77,14.77,0,0,1-2.41,8.9A9.43,9.43,0,0,1,900.7,398.07Zm-4.13-22.87h8v-3.41a25.26,25.26,0,0,0,0-3.89,4.29,4.29,0,0,0-1.06-2.42,3.63,3.63,0,0,0-2.59-.83,3.71,3.71,0,0,0-2.54.83,4,4,0,0,0-1.18,2.59,29.67,29.67,0,0,0-.35,5.07Z"/><path class="cls-2" d="M917.91,397.54V360.06h7v5.3a13.57,13.57,0,0,1,4.12-4.6,8.44,8.44,0,0,1,4.13-1.12h1.12v7.67l-1.77-.53a11.81,11.81,0,0,0-2.06,0,5.85,5.85,0,0,0-2.95.76,7.51,7.51,0,0,0-2.59,2.89v27.35Z"/><path class="cls-2" d="M948.86,398.07a11.75,11.75,0,0,1-6.84-1.71,8.82,8.82,0,0,1-3.3-5.06,29.87,29.87,0,0,1-1-8.2v-8.54a29.85,29.85,0,0,1,1-8.31,8.63,8.63,0,0,1,3.42-5,11.73,11.73,0,0,1,6.72-1.71,10.45,10.45,0,0,1,6.95,1.94,9.69,9.69,0,0,1,3,5.9,46,46,0,0,1,.7,8.78v3H944.67v7.55a15.41,15.41,0,0,0,.41,3.71,3.53,3.53,0,0,0,1.42,2.06,3.72,3.72,0,0,0,2.41.71,3.25,3.25,0,0,0,2.36-.76,4.05,4.05,0,0,0,1.12-2.13,18.17,18.17,0,0,0,.3-3.3v-2.24h6.48v1.42a14.78,14.78,0,0,1-2.42,8.9A9.34,9.34,0,0,1,948.86,398.07Zm-4.19-22.87h8v-3.41a22.93,22.93,0,0,0-.3-3.89,4.29,4.29,0,0,0-1.06-2.42,3.63,3.63,0,0,0-2.59-.83,3.71,3.71,0,0,0-2.54.83,4,4,0,0,0-1.18,2.59,29.67,29.67,0,0,0-.35,5.07Z"/><path class="cls-2" d="M974.44,398.07a8.07,8.07,0,0,1-7.08-3.47,22.39,22.39,0,0,1-2.3-11.79v-7.25a43.4,43.4,0,0,1,.71-8,12.17,12.17,0,0,1,2.65-5.89,7.56,7.56,0,0,1,5.9-2.24,6.71,6.71,0,0,1,3.42.88,10,10,0,0,1,2.77,2.06V344.73h7v52.52h-7v-2.42a9.91,9.91,0,0,1-2.66,2.12A6.94,6.94,0,0,1,974.44,398.07Zm1.76-5.48a6.34,6.34,0,0,0,2.07-.35,9.36,9.36,0,0,0,2.18-1.06V366.6a13.19,13.19,0,0,0-2-1.12,6.09,6.09,0,0,0-2.35-.47,3.19,3.19,0,0,0-3.25,2.3,15.32,15.32,0,0,0-.88,5.54V383.4a39.05,39.05,0,0,0,.29,4.71,6.89,6.89,0,0,0,1.24,3.3A3,3,0,0,0,976.2,392.59Z"/><path class="cls-2" d="M1022.71,398.07a7,7,0,0,1-3.66-1,14.88,14.88,0,0,1-2.71-2.24v2.71h-7V345h7v18a12.27,12.27,0,0,1,2.95-2.47,7.48,7.48,0,0,1,4.13-1.06,6.61,6.61,0,0,1,4.59,1.53,9.58,9.58,0,0,1,2.6,3.83,19.1,19.1,0,0,1,1.06,4.66,39.27,39.27,0,0,1,0,4.06v9.08a38.54,38.54,0,0,1-.77,7.49,12.05,12.05,0,0,1-2.83,5.89A7.15,7.15,0,0,1,1022.71,398.07Zm-1.47-5.48a2.66,2.66,0,0,0,2.59-1.29,8.14,8.14,0,0,0,1-3.6V373.61a30.85,30.85,0,0,0,0-4.3,6.47,6.47,0,0,0-1.12-3.12,3,3,0,0,0-2.65-1.18,5.86,5.86,0,0,0-2.6.59,10.77,10.77,0,0,0-2.06,1.29v24.05a7,7,0,0,0,2.18,1.18A6.56,6.56,0,0,0,1021.24,392.59Z"/><path class="cls-2" d="M1037.68,407v-5.36a24.4,24.4,0,0,0,4,0,3.52,3.52,0,0,0,2.12-.82,2.29,2.29,0,0,0,.65-1.71,17.49,17.49,0,0,0-.47-2.6,20.69,20.69,0,0,0-1-4.3l-7.25-32.12h7l4.77,27.88,4.84-28h6.95l-8.9,39.78a8,8,0,0,1-2.12,4.31,9.08,9.08,0,0,1-4,2.3,20.94,20.94,0,0,1-5.89.76Z"/><path class="cls-2" d="M1079.47,397.54V345h7.19v52.51Z"/><path class="cls-2" d="M1095.15,397.54V345h20.39v5.42h-13v17.68h10.55v5.19h-10.55v19.27h13.14v5.25Z"/><path class="cls-2" d="M1121.55,397.54V345h11.79a21.53,21.53,0,0,1,6.19.76,11.78,11.78,0,0,1,4.36,2.42,9.92,9.92,0,0,1,2.6,4.13,18.89,18.89,0,0,1,.82,5.89,15.66,15.66,0,0,1-.82,5.6,8.55,8.55,0,0,1-2.42,3.77,8.68,8.68,0,0,1-4.24,1.71,11,11,0,0,1,5.12,2.48,9.49,9.49,0,0,1,2.83,4.36,19.51,19.51,0,0,1,1,6.48,22.23,22.23,0,0,1-.77,5.9,12.13,12.13,0,0,1-2.42,4.77,11.28,11.28,0,0,1-4.24,3,15.84,15.84,0,0,1-5.9,1.06Zm7.31-30.59h4.36a11.14,11.14,0,0,0,4.9-.88,5,5,0,0,0,2.41-2.83,14.78,14.78,0,0,0,.71-5.07,10.05,10.05,0,0,0-1.06-5.25,5,5,0,0,0-3.48-2,33.27,33.27,0,0,0-5.89-.47H1129Zm0,25.35h5a7.73,7.73,0,0,0,6.6-2.3,13.26,13.26,0,0,0,1.65-7.43,15,15,0,0,0-.88-5.54,6.66,6.66,0,0,0-2.83-3.36,9.84,9.84,0,0,0-5.13-1.18h-4.36Z"/><path class="cls-2" d="M1167.88,398.13a13.68,13.68,0,0,1-7.54-1.94,12.23,12.23,0,0,1-4.54-5.37,21.92,21.92,0,0,1-1.83-8l6.48-1.71a27,27,0,0,0,.89,5.36,9.76,9.76,0,0,0,2.24,4.25,5.55,5.55,0,0,0,4.3,1.65,5.9,5.9,0,0,0,4.36-1.59,6.66,6.66,0,0,0,1.42-4.54,9.69,9.69,0,0,0-1.59-5.9A34.29,34.29,0,0,0,1168,376l-8.84-7.78a15.55,15.55,0,0,1-3.83-4.95,15.87,15.87,0,0,1-1.24-6.66,11.82,11.82,0,0,1,3.3-9,12.55,12.55,0,0,1,9-3.18,17.26,17.26,0,0,1,5.48.82,9.48,9.48,0,0,1,3.95,2.48,12.89,12.89,0,0,1,2.53,4.24,23.76,23.76,0,0,1,1.3,5.9l-6.25,1.71a27.51,27.51,0,0,0-.76-4.78,7,7,0,0,0-2.07-3.48,5.88,5.88,0,0,0-4.18-1.35,5.25,5.25,0,0,0-5.9,4.5,5.39,5.39,0,0,0,0,1.39,8.82,8.82,0,0,0,.83,3.95A10.43,10.43,0,0,0,1164,363l8.84,7.78a25.67,25.67,0,0,1,5.25,5.9,15.57,15.57,0,0,1,2.3,8.54,12.67,12.67,0,0,1-1.65,6.67,11,11,0,0,1-4.42,4.36A14.43,14.43,0,0,1,1167.88,398.13Z"/><rect class="cls-3" x="19.53" y="268.64" width="1160.85" height="29.47"/></svg>