<?xml version="1.0" encoding="utf-8"?>
<!-- Generator: Adobe Illustrator 25.1.0, SVG Export Plug-In . SVG Version: 6.00 Build 0)  -->
<svg version="1.1" id="Capa_1" xmlns="http://www.w3.org/2000/svg" xmlns:xlink="http://www.w3.org/1999/xlink" x="0px" y="0px"
	 viewBox="0 0 1363 420" style="enable-background:new 0 0 1363 420;" xml:space="preserve">
<style type="text/css">
	.st0{fill:#FFE500;}
	.st1{fill:#FFFFFF;}
	.st2{fill:#FFE500;stroke:#000000;stroke-width:50;stroke-linecap:round;stroke-linejoin:round;stroke-miterlimit:10;}
</style>
<g>
	<g>
		<path d="M16.3,366.1c0.3-2.1,0.6-4.2,0.9-6.3c1.1-8.9,2.2-17.9,3.4-26.8c1.2-9.5,2.4-18.9,3.5-28.4c0.5-4,1-8,1.5-12
			c0.4-3.1,0.6-6.2,1.5-9.1c2.2-7.1,6.2-13.1,12.4-17.4c3.8-2.7,8.3-3.7,12.8-4.2c4.9-0.6,9.7-0.4,14.6-0.1c3.7,0.2,7.4,0,11.1,0
			c4.1-0.1,8.2-0.1,12.4-0.2c9.7-0.2,19.3-0.3,29-0.6c0.4,0,1-0.3,1.1-0.6c5.5-11.2,14.4-19.1,25.2-25c1.5-0.8,2.9-1.6,4.5-2.3
			c0.7-0.3,0.9-0.8,1-1.5c0.9-6.4,1.5-12.9,3-19.2c1.8-7.9,5.8-14.9,10.2-21.7c3.8-5.8,8.1-11.3,12.1-17c0.3-0.4,0.8-1,0.7-1.3
			c-0.2-0.7-0.7-1.4-1.2-2c-0.1-0.2-0.7-0.1-1,0c-3.8,1-7.6,1.4-11.6,1.1c-8.7-0.8-15.1-7-15.8-15.8c-0.1-0.8-0.4-1.1-1-1.5
			c-7.2-4.6-13.3-10.4-17.6-17.8c-3.1-5.3-4.6-11-5.4-17c-0.8-5.8-1.1-11.6-0.5-17.5c1-9.2,4.2-17.4,11.1-23.8c3.3-3,7-5.3,11.3-6.2
			c2.5-0.5,5.2-0.4,7.8-0.4c1.5,0,2.3-0.4,3.1-1.8c3.6-6.1,8.8-10.9,14.5-15c7.5-5.4,15.4-9.9,24.1-12.9c4.2-1.4,8.6-1.7,12.9-2.5
			c3.8-0.7,7.6-1.5,11.3-2.3c0.6-0.1,1.3-0.5,1.8-0.9c9.3-6.4,18.3-13.1,28.4-18.2c5.4-2.7,11-4.9,17.1-5.7c0.1,0,0.2-0.1,0.3-0.2
			c1.8,0,3.7,0,5.5,0c0.7,0.2,1.4,0.3,2.1,0.5c5.9,1.8,9.6,5.7,11.2,11.6c0.1,0.4,0.2,0.9,0.3,1.2c2.4,0.3,4.7,0.4,7,0.9
			c6.9,1.4,10.9,5.7,11.8,12.7c0.1,0.7,0.2,1.4,0.2,1.8c3.5,1.4,6.8,2.7,10.1,4.2c11.7,5.3,20.9,13.6,28.1,24.2
			c0.8,1.2,1.7,1.5,3,1.6c3.8,0.3,7.6,1.2,10.9,3c5.5,3,9.4,7.6,12.5,12.9c4.1,7.2,5.5,15.1,5,23.3c-0.5,9.5-3.1,18.4-7.3,26.9
			c-0.1,0.3-0.3,0.5-0.4,0.8c0,0,0,0.1,0,0.2c1-0.8,2-1.6,3-2.3c11.1-8.5,23.4-14.3,37.2-16.6c13.5-2.2,26.7-0.6,39.5,4.4
			c9,3.5,17.1,8.4,24,15.2c8,8,13.4,17.6,16.3,28.5c2,7.4,2.7,14.8,2.5,22.5c0,0.2,0,0.5,0,0.8c1.4,0.1,2.9,0.2,4.3,0.3
			c6.3,0.6,12.5,1.6,18.3,4.4c9.7,4.6,15.1,12.5,16.4,23.1c0.9,7.7,0.1,15.3-1.5,22.9c-1.1,5.4-2.5,10.7-3.9,16
			c-0.9,3.5-0.9,6.9-0.8,10.5c0.4,11.2-0.2,22.4-1.5,33.5c-0.5,4.4-0.9,8.9-2,13.1c-3,11.3-10.7,18-21.8,21
			c-6.1,1.6-12.2,1.7-18.5,1.3c-8-0.5-16-0.8-24-0.8c-7.6,0-15.2,0.3-22.8,0.9c-9.2,0.7-18.3,1.7-27.4,2.8
			c-12.7,1.6-25.3,4-37.8,7.1c-12,3-23.9,6.3-35.9,9.4c-35.1,9.1-70.1,18.4-105.2,27.3c-21.5,5.4-43.2,10.2-64.8,15.2
			c-10.1,2.3-20.4,3.7-30.8,4.7c-9.4,0.9-18.8,1.9-28.3,2.6c-9.1,0.7-18.3,1.2-27.4,1.5c-6.8,0.2-13.6,0.1-20.4-0.3
			c-6.9-0.4-13.8-1.5-20.1-4.5c-9.3-4.3-14.9-11.5-16.3-21.8c-0.2-1.7-0.5-3.4-0.7-5.1C16.3,372.2,16.3,369.2,16.3,366.1z
			 M280.9,30.6c0-0.8,0-1.6,0-2.4c-0.2-3.6-1.4-6.7-4.3-9c-3.1-2.4-6.6-2.7-10.3-2.1c-4.3,0.7-8.3,2.2-12.2,4
			c-10.9,5.1-20.5,12.3-30.4,19.1c-0.8,0.6-1.8,1.2-2.7,1.4c-5.1,1.1-10.2,2.1-15.3,3c-3.4,0.5-6.8,1-10,2.2
			c-10.3,3.7-19.5,9.4-27.7,16.6c-3.6,3.2-6.7,6.9-8.7,11.4c-0.5,1.1-1.2,1.5-2.3,1.5c-3.2,0.1-6.3,0.2-9.5,0.3
			c-0.4,0-0.8,0.1-1.1,0.2c-5,1.5-8.9,4.4-12,8.5c-4.7,6.2-6.4,13.4-6.6,21c-0.1,4.5,0.4,9,0.9,13.5c0.5,4.4,1.7,8.7,3.9,12.7
			c4.1,7.6,10,13.3,17.3,17.7c1.9,1.1,3.1,2.3,2.6,4.6c-0.1,0.4,0.1,0.8,0.2,1.2c1,6.7,5.7,10,12,10.4c4.3,0.3,8.4-0.6,12.4-2.1
			c0.7-0.3,1.2-0.2,1.6,0.5c1.4,2.4,2.9,4.7,4.3,7c0.3,0.6,0.4,1,0,1.5c-1.2,1.6-2.4,3.3-3.6,4.9c-3.9,5.5-8,10.9-11.7,16.6
			c-3.7,5.8-6.9,12-8.7,18.7c-0.9,3.3-1.3,6.8-1.8,10.2c-0.5,3.6-0.9,7.3-1.3,11c-0.1,0.8-0.3,1.2-1,1.6c-2.4,1.2-4.8,2.4-7.1,3.7
			c-10.7,5.9-19.1,13.9-23.9,25.3c-0.2,0.4-0.9,0.7-1.3,0.8c-4.7,0.1-9.3,0.2-14,0.3c-4.2,0.1-8.5,0.2-12.7,0.2
			c-4.8,0.1-9.6,0.2-14.4,0.2c-3.6,0-7.1,0-10.7,0c-1.2,0-2.4,0.1-3.6,0.1c-1.3,0-2.6-0.3-3.9-0.3c-3.1,0-6.3,0.1-9.4,0.2
			c-3,0.2-5.9,0.9-8.7,2c-4.3,1.7-7,5-9.5,8.6c-2.6,3.8-4.2,7.9-4.7,12.5c-0.3,3.1-0.6,6.3-1,9.4c-0.4,3.4-0.9,6.9-1.3,10.3
			c-0.4,3.3-0.8,6.6-1.2,9.9c-0.4,3.4-0.9,6.9-1.3,10.3c-0.4,3.3-0.8,6.6-1.2,10c-0.4,3.4-0.9,6.9-1.3,10.3
			c-0.4,3.4-0.9,6.8-1.3,10.2c-0.4,3.3-0.9,6.7-0.9,10c0,3.4,0.4,6.8,0.9,10.2c1.1,8.2,5.8,13.9,13.2,17.2c7.2,3.2,15,4,22.8,4.4
			c3.1,0.2,6.3,0.1,9.4,0c4.5-0.1,9.1-0.1,13.6-0.3c4.6-0.2,9.2-0.6,13.8-0.9c2.5-0.2,4.9-0.3,7.4-0.5c3.9-0.3,7.9-0.7,11.8-1.1
			c3.5-0.3,7-0.6,10.6-1c3.9-0.4,7.8-0.9,11.7-1.3c4.1-0.5,8.2-0.9,12.2-1.7c13.4-2.8,26.8-5.6,40.1-8.7
			c15.2-3.5,30.4-7.3,45.6-11.2c19.9-5,39.9-10.2,59.7-15.4c19.7-5.2,39.3-10.5,58.9-15.7c18.4-4.9,37.1-8.6,56-10.9
			c5.5-0.6,10.9-1.3,16.4-1.8c4.5-0.4,9.1-0.7,13.7-0.9c4.8-0.2,9.6-0.4,14.4-0.5c3.2,0,6.4,0,9.6,0.2c5.9,0.3,11.8,0.6,17.7,0.9
			c4.7,0.2,9.3,0.1,13.8-1.1c6-1.5,11.2-4.3,15-9.4c3.3-4.3,4.6-9.4,5.1-14.7c0.5-4.6,1.1-9.1,1.4-13.7c0.4-5.6,0.7-11.2,0.9-16.8
			c0.1-2.3,0.1-4.7,0-7c-0.3-4.2-0.4-8.4,0.7-12.5c2-7.2,3.9-14.5,4.9-21.9c0.8-5.8,1.4-11.5,0.4-17.3c-1.1-6.2-3.9-11.5-9.1-15.2
			c-5.8-4.2-12.5-5.5-19.4-6.2c-3.3-0.3-6.5-0.4-9.8-0.5c-0.7,0-0.8-0.2-0.8-1c0.2-3.6,0.3-7.1,0.3-10.7c0-5.7-1.1-11.3-2.7-16.8
			c-3.5-12-10.1-21.9-20.1-29.4c-11.2-8.5-24-13-38-14.2c-5.9-0.5-11.9-0.1-17.7,1.1c-12.3,2.6-23.3,8-33.2,15.7
			c-5.1,3.9-9.5,8.6-14,13.2c-4,4.2-7.9,8.4-10.9,13.3c-5.2,8.3-10.7,16.4-16.2,24.6c-0.5,0.7-1,1.5-1.6,2.3
			c-0.3-0.2-0.4-0.4-0.5-0.5c-4.1-5.4-8.2-10.8-12.3-16.3c-0.2-0.3-0.4-0.7-0.4-1c0-1.4,0-2.9,0.3-4.3c0.7-3.9,3.5-6.5,7.1-6.3
			c2.8,0.1,5.5,0.6,8.2,1c1.9,0.3,3.8,0.7,5.7,0.2c4.9-1.4,8.5-7,7.8-12.5c-0.1-0.5,0.2-1.1,0.5-1.4c1.6-1.5,3.3-2.9,5-4.3
			c3.1-2.6,6.1-5.2,8.5-8.5c3.4-4.7,5.6-10,7.2-15.5c2.2-7.4,3.3-14.9,2.2-22.6c-0.9-6.1-3.1-11.7-7.1-16.5
			c-2.9-3.5-6.2-6.8-10.8-7.9c-3-0.7-6.2-1-9.3-1.5c-0.4-0.1-0.8-0.3-1-0.6c-2.5-3.3-4.9-6.8-7.6-9.9c-8.8-10.1-19.7-16.8-32.9-19.5
			c-0.6-0.1-0.7-0.4-0.7-0.9c-0.1-2,0-4-0.3-5.9c-0.6-3.2-2.3-5.9-5.6-6.9c-1.8-0.5-3.6-0.9-5.5-1C285.8,30.5,283.4,30.6,280.9,30.6
			z M329.4,184.7c3.1-4.6,6-9.1,8.9-13.3c-2.2-0.2-4.4-0.3-6.5-0.6c-2.4-0.3-4.8-0.7-7.2-1.1c-1-0.1-1.9,0.1-2.3,1
			c-0.6,1.2-1.3,2.5-0.5,3.7C324.1,177.9,326.7,181.2,329.4,184.7z"/>
		<path class="st0" d="M280.9,30.6c2.5,0,4.8-0.1,7.2,0c1.8,0.1,3.7,0.5,5.5,1c3.4,1,5,3.6,5.6,6.9c0.4,1.9,0.3,3.9,0.3,5.9
			c0,0.5,0.1,0.8,0.7,0.9c13.2,2.8,24.1,9.4,32.9,19.5c2.7,3.1,5,6.6,7.6,9.9c0.2,0.3,0.7,0.5,1,0.6c3.1,0.5,6.3,0.8,9.3,1.5
			c4.6,1.1,7.9,4.4,10.8,7.9c4,4.8,6.2,10.3,7.1,16.5c1.1,7.7,0,15.2-2.2,22.6c-1.6,5.5-3.8,10.8-7.2,15.5c-2.4,3.3-5.4,5.9-8.5,8.5
			c-1.7,1.4-3.4,2.8-5,4.3c-0.3,0.3-0.6,1-0.5,1.4c0.7,5.4-2.8,11.1-7.8,12.5c-2,0.5-3.8,0.1-5.7-0.2c-2.7-0.4-5.5-0.9-8.2-1
			c-3.6-0.2-6.4,2.4-7.1,6.3c-0.2,1.4-0.2,2.9-0.3,4.3c0,0.3,0.2,0.7,0.4,1c4.1,5.4,8.2,10.9,12.3,16.3c0.1,0.1,0.3,0.3,0.5,0.5
			c0.6-0.8,1.1-1.5,1.6-2.3c5.4-8.2,11-16.3,16.2-24.6c3.1-5,7-9.2,10.9-13.3c4.4-4.6,8.9-9.3,14-13.2c9.9-7.7,20.9-13.1,33.2-15.7
			c5.9-1.2,11.8-1.6,17.7-1.1c14,1.1,26.8,5.6,38,14.2c10,7.6,16.5,17.5,20.1,29.4c1.6,5.5,2.7,11.1,2.7,16.8
			c0,3.6-0.1,7.1-0.3,10.7c0,0.7,0.1,1,0.8,1c3.3,0.1,6.6,0.2,9.8,0.5c6.9,0.7,13.6,2.1,19.4,6.2c5.2,3.7,8,9,9.1,15.2
			c1,5.8,0.4,11.5-0.4,17.3c-1,7.4-2.9,14.7-4.9,21.9c-1.1,4.1-1,8.3-0.7,12.5c0.2,2.3,0.1,4.7,0,7c-0.2,5.6-0.5,11.2-0.9,16.8
			c-0.3,4.6-0.9,9.2-1.4,13.7c-0.6,5.3-1.9,10.3-5.1,14.7c-3.8,5.1-9,7.8-15,9.4c-4.6,1.2-9.2,1.3-13.8,1.1
			c-5.9-0.2-11.8-0.6-17.7-0.9c-3.2-0.1-6.4-0.2-9.6-0.2c-4.8,0.1-9.6,0.2-14.4,0.5c-4.6,0.2-9.1,0.5-13.7,0.9
			c-5.5,0.5-11,1.1-16.4,1.8c-18.9,2.2-37.6,6-56,10.9c-19.7,5.2-39.3,10.6-58.9,15.7c-19.9,5.2-39.8,10.3-59.7,15.4
			c-15.2,3.8-30.4,7.6-45.6,11.2c-13.3,3.1-26.7,5.9-40.1,8.7c-4,0.8-8.1,1.2-12.2,1.7c-3.9,0.5-7.8,0.9-11.7,1.3
			c-3.5,0.4-7,0.6-10.6,1c-3.9,0.4-7.9,0.8-11.8,1.1c-2.5,0.2-4.9,0.3-7.4,0.5c-4.6,0.3-9.2,0.7-13.8,0.9c-4.5,0.2-9.1,0.2-13.6,0.3
			c-3.1,0-6.3,0.1-9.4,0c-7.8-0.4-15.6-1.2-22.8-4.4c-7.4-3.3-12.1-9-13.2-17.2c-0.5-3.4-0.9-6.8-0.9-10.2c0-3.3,0.6-6.7,0.9-10
			c0.4-3.4,0.9-6.8,1.3-10.2c0.4-3.4,0.9-6.9,1.3-10.3c0.4-3.3,0.8-6.6,1.2-10c0.4-3.4,0.9-6.9,1.3-10.3c0.4-3.3,0.8-6.6,1.2-9.9
			c0.4-3.4,0.9-6.9,1.3-10.3c0.4-3.1,0.7-6.3,1-9.4c0.5-4.6,2.1-8.7,4.7-12.5c2.5-3.6,5.3-6.9,9.5-8.6c2.8-1.1,5.7-1.8,8.7-2
			c3.1-0.2,6.2-0.2,9.4-0.2c1.3,0,2.6,0.3,3.9,0.3c1.2,0,2.4-0.1,3.6-0.1c3.6,0,7.1,0,10.7,0c4.8-0.1,9.6-0.1,14.4-0.2
			c4.2-0.1,8.5-0.2,12.7-0.2c4.7-0.1,9.3-0.1,14-0.3c0.5,0,1.1-0.4,1.3-0.8c4.8-11.4,13.2-19.4,23.9-25.3c2.3-1.3,4.7-2.5,7.1-3.7
			c0.7-0.4,0.9-0.8,1-1.6c0.4-3.7,0.8-7.3,1.3-11c0.5-3.4,0.9-6.9,1.8-10.2c1.8-6.7,5-12.9,8.7-18.7c3.7-5.7,7.8-11.1,11.7-16.6
			c1.2-1.6,2.3-3.3,3.6-4.9c0.4-0.6,0.4-1,0-1.5c-1.5-2.3-2.9-4.6-4.3-7c-0.4-0.7-0.9-0.7-1.6-0.5c-4,1.4-8.1,2.4-12.4,2.1
			c-6.3-0.4-11-3.8-12-10.4c-0.1-0.4-0.3-0.8-0.2-1.2c0.4-2.3-0.7-3.4-2.6-4.6c-7.3-4.4-13.2-10.2-17.3-17.7
			c-2.1-4-3.4-8.3-3.9-12.7c-0.5-4.5-1-9-0.9-13.5c0.2-7.6,1.9-14.8,6.6-21c3.1-4.1,7.1-7,12-8.5c0.4-0.1,0.7-0.2,1.1-0.2
			c3.2-0.1,6.3-0.2,9.5-0.3c1.1,0,1.8-0.4,2.3-1.5c2-4.5,5.1-8.1,8.7-11.4c8.2-7.3,17.4-12.9,27.7-16.6c3.2-1.2,6.6-1.6,10-2.2
			c5.1-0.8,10.2-1.9,15.3-3c1-0.2,1.9-0.8,2.7-1.4c9.9-6.8,19.4-14,30.4-19.1c3.9-1.8,8-3.3,12.2-4c3.7-0.6,7.2-0.3,10.3,2.1
			c2.9,2.3,4.1,5.4,4.3,9C281,29,280.9,29.8,280.9,30.6z M283.3,51.2c3.2-1.6,6.1-3.1,9.1-4.6c0-0.1-0.1-0.2-0.1-0.3
			c-3.1,0-6.3,0-9.7,0c3.5-2,6.7-3.9,9.9-5.8c-0.1-0.2-0.1-0.3-0.2-0.5c-9.6-1-18.9,0.6-28.2,3.4c3.4-3.5,6.7-7,10.1-10.4
			c-0.1-0.1-0.1-0.2-0.2-0.3c-2.2,0.3-4.4,0.6-6.8,1c2.4-2.6,4.7-4.9,7-7.3c0-0.1-0.1-0.2-0.1-0.3c-0.3,0.1-0.7,0.1-1,0.2
			c-4.4,1.3-8.9,2.6-13.3,4c-6.4,2-12.2,4.9-17.3,9.3c-3.8,3.2-7.4,6.6-11.1,9.9c-0.5,0.4-1.2,0.8-1.8,0.9c-1.8,0.3-3.7,0.5-5.5,0.7
			c-6,0.6-11.9,1.7-17.8,3.2c-12.4,3.1-22.8,9.5-31.3,19c-4.2,4.6-7.5,9.8-9.7,15.8c-0.4-0.2-0.7-0.4-1-0.5
			c-1.6-0.8-3.1-1.6-4.8-2.2c-5.7-2.2-12.3-1.2-16.2,3.8c-1.5,1.9-2.8,4.1-3.7,6.4c-2.5,6.4-2.3,13-1.3,19.6
			c1.3,9.3,5.8,17.1,13.2,22.9c2.9,2.3,6.2,4.1,9.3,6.2c0.7,0.5,1.4,1,1.8,1.6c1,1.3,1.7,2.8,2.8,4.1c0.7,0.8,0.9,1.5,0.7,2.5
			c-0.2,1.1-0.3,2.3-0.5,3.6c1-0.2,1.7-0.4,2.6-0.7c0,1.1,0,2.1,0,3.2c0.7-0.2,1.2-0.3,1.7-0.6c1.4-0.7,3-0.9,4.5-0.8
			c3.4,0.1,6.8,0.1,10.2,0c1.5,0,2.5,0.6,3.3,1.8c1.2,1.9,2.5,3.8,3.7,5.8c0.9,1.3,1.8,2.6,2.5,4.1c1.2,2.5,1.1,5-0.4,7.4
			c-5.5,8.6-11,17.2-16.4,25.9c-6.5,10.4-9.3,21.9-9.4,34.1c0,1.8-0.1,3.5,0,5.3c0,1-0.3,1.3-1.2,1.5c-3.3,1-6.6,2-9.9,3.2
			c-7.8,2.8-14.1,7.6-18.3,14.8c-2,3.5-3.8,7-5.8,10.5c-0.2,0.4-0.6,0.9-1,0.9c-1.8,0.2-3.6,0.4-5.3,0.5c-3.9,0.3-7.8,0.5-11.7,0.7
			c-4.5,0.2-9,0.5-13.5,0.4c-8.6,0-17.2-0.3-25.9-0.4c-3.8-0.1-7.7-0.1-11.5,0c-3.8,0.1-7.5,1-10.9,2.6c-5.7,2.6-9.7,6.8-11,13.2
			c-0.5,2.3-0.6,4.7-0.9,7.1c-0.4,3.5-0.9,7-1.3,10.5c-0.4,3.3-0.8,6.6-1.2,9.8c-0.4,3.4-0.9,6.8-1.3,10.2c-0.4,3.3-0.8,6.6-1.2,10
			c-0.5,4-1,8-1.5,12c-0.5,3.8-1,7.5-1.4,11.3c-0.6,5-1.7,9.9-1.1,15c0.6,5.2,2.5,9.6,7.2,12.1c2.4,1.3,5,2.2,7.7,2.8
			c6.5,1.4,13.2,1.7,19.9,1.9c5.8,0.1,11.6,0,17.4-0.2c4.7-0.2,9.3-0.6,14-0.9c3.5-0.2,7.1-0.4,10.6-0.7c4.2-0.4,8.3-0.9,12.5-1.3
			c4.2-0.5,8.3-0.9,12.5-1.4c5.6-0.8,11.1-1.6,16.7-2.5c5.7-0.9,11.3-1.8,17-2.9c8.9-1.7,17.8-3.5,26.7-5.4
			c15.3-3.4,30.6-6.8,45.9-10.5c13.4-3.2,26.7-6.5,40-10c11.7-3,23.5-5.9,35-9.3c17.1-5.1,34.3-10.2,51.7-14.2
			c13.3-3,26.8-5.5,40.4-7.2c5.3-0.6,10.7-1.1,16-1.6c5.3-0.5,10.5-0.8,15.8-1.2c4.4-0.3,8.8-0.5,13.2-0.7c4.2-0.2,8.5-0.3,12.7-0.5
			c3-0.1,6-0.2,9-0.2c5.5-0.1,11-0.2,16.5-0.2c2.7,0,5.3-0.5,7.8-1.4c4.3-1.7,7.5-4.4,8.2-9.4c0.7-4.6,1.6-9.1,2.2-13.7
			c0.5-3.8,1-7.5,1.1-11.3c0.1-4.9-1.9-9-5.7-12.1c-1.4-1.1-3-2-4.6-3.1c0.1-0.2,0.2-0.4,0.4-0.7c3.9-6.4,7.9-12.9,11.8-19.3
			c0.9-1.5,1.6-3.1,2-4.7c1-4.9,1.9-9.8,2.8-14.8c0.6-3.2,1.2-6.4,1-9.7c-0.3-3.6-1.3-6.8-3.4-9.7c-1.2-1.6-2.6-3-4.6-3.8
			c-7-2.4-14.2-3.2-21.4-3.4c-3.3-0.1-6.6,0-10,0c-0.9,0-1.3-0.1-1-1.2c0.3-1.7,0.6-3.6,0.5-5.3c-0.1-4.8-0.4-9.7-0.7-14.5
			c-0.1-2.5-0.3-5.1-0.8-7.6c-1.5-8.8-5.1-16.8-10.4-24c-2.5-3.4-5.2-6.7-8.7-9.2c-10-7-21.3-10.4-33.4-11.1
			c-4.8-0.3-9.6,0.3-14.3,1.5c-8.9,2.2-17,6.1-24.7,11.1c-8.6,5.5-16.5,11.7-23,19.7c-8.3,10.3-16,21-23,32.2c-2.8,4.5-6,9-7.5,14.2
			c-0.3,1-0.9,1.1-1.6,0.2c-0.5-0.7-0.9-1.5-1.3-2.3c-0.6-1.2-1-2.5-1.6-3.8c-4.1-8.9-9.5-17-15.3-24.9c-1.2-1.6-2.2-3.4-3.1-5.2
			c-0.3-0.6-0.4-1.7-0.1-2.2c2.5-4.7,5-9.4,8.9-13.2c1.1-1,2.3-1.6,3.8-1.7c3.9-0.1,7.7,0.3,11.5,1.1c1.3,0.3,2.7,0.6,4.2,0.8
			c0-1-0.2-1.9,0.1-2.5c0.3-0.5,1.2-0.6,1.9-0.9c0.1-1.5,0.1-3,0.4-4.6c0.4-2.5,1.1-5.1,3.4-6.5c3.7-2.2,6.7-5,9.6-8.1
			c3.5-3.7,6.9-7.6,8.4-12.5c1-3.3,1.7-6.7,2.4-10.1c1-5,1.1-10-0.1-14.9c-1.3-5.6-4.7-9.7-9.5-12.5c-3.7-2.2-7.8-1.7-11.8-0.8
			c-1.6,0.4-3.1,0.9-4.7,1.4c-0.4-1.5-0.7-2.9-1.1-4.3c-1.2-5-2.9-9.9-6.5-13.8c-4.6-5.1-10.2-8.9-16.4-11.7
			C303.1,54.1,293.4,52.5,283.3,51.2z"/>
		<path d="M283.3,51.2c10.1,1.3,19.8,3,28.8,7c6.2,2.8,11.8,6.6,16.4,11.7c3.6,4,5.3,8.8,6.5,13.8c0.3,1.4,0.7,2.8,1.1,4.3
			c1.6-0.5,3.2-1,4.7-1.4c4-1,8.1-1.4,11.8,0.8c4.8,2.8,8.2,7,9.5,12.5c1.2,5,1.1,10,0.1,14.9c-0.7,3.4-1.4,6.8-2.4,10.1
			c-1.6,5-5,8.8-8.4,12.5c-2.9,3.1-5.9,5.9-9.6,8.1c-2.4,1.4-3,3.9-3.4,6.5c-0.3,1.5-0.3,3.1-0.4,4.6c-0.6,0.3-1.6,0.4-1.9,0.9
			c-0.3,0.6-0.1,1.5-0.1,2.5c-1.5-0.3-2.8-0.6-4.2-0.8c-3.8-0.8-7.6-1.2-11.5-1.1c-1.5,0.1-2.7,0.7-3.8,1.7
			c-3.9,3.8-6.4,8.5-8.9,13.2c-0.3,0.6-0.2,1.6,0.1,2.2c0.9,1.8,2,3.5,3.1,5.2c5.8,7.9,11.2,16,15.3,24.9c0.6,1.2,1,2.5,1.6,3.8
			c0.4,0.8,0.8,1.6,1.3,2.3c0.6,0.9,1.3,0.8,1.6-0.2c1.5-5.3,4.6-9.7,7.5-14.2c7-11.2,14.7-22,23-32.2c6.5-8,14.5-14.2,23-19.7
			c7.7-4.9,15.8-8.9,24.7-11.1c4.7-1.1,9.4-1.8,14.3-1.5c12.1,0.7,23.4,4.1,33.4,11.1c3.5,2.4,6.2,5.8,8.7,9.2
			c5.4,7.2,8.9,15.2,10.4,24c0.4,2.5,0.6,5.1,0.8,7.6c0.3,4.8,0.5,9.7,0.7,14.5c0,1.8-0.2,3.6-0.5,5.3c-0.2,1.1,0.1,1.2,1,1.2
			c3.3,0,6.6-0.1,10,0c7.3,0.2,14.5,0.9,21.4,3.4c2.1,0.7,3.4,2.1,4.6,3.8c2.1,2.9,3.2,6.1,3.4,9.7c0.2,3.3-0.4,6.5-1,9.7
			c-0.8,4.9-1.7,9.9-2.8,14.8c-0.4,1.6-1.1,3.3-2,4.7c-3.9,6.5-7.9,12.9-11.8,19.3c-0.2,0.3-0.3,0.5-0.4,0.7c1.6,1,3.2,1.9,4.6,3.1
			c3.8,3.1,5.8,7.2,5.7,12.1c-0.1,3.8-0.6,7.6-1.1,11.3c-0.6,4.6-1.6,9.1-2.2,13.7c-0.7,4.9-3.9,7.7-8.2,9.4c-2.5,1-5.1,1.4-7.8,1.4
			c-5.5,0.1-11,0.1-16.5,0.2c-3,0.1-6,0.1-9,0.2c-4.2,0.1-8.5,0.3-12.7,0.5c-4.4,0.2-8.8,0.4-13.2,0.7c-5.3,0.3-10.6,0.7-15.8,1.2
			c-5.3,0.5-10.7,1-16,1.6c-13.6,1.6-27,4.1-40.4,7.2c-17.4,4-34.6,9.1-51.7,14.2c-11.6,3.4-23.3,6.3-35,9.3
			c-13.3,3.4-26.7,6.8-40,10c-15.3,3.6-30.6,7.1-45.9,10.5c-8.9,2-17.8,3.7-26.7,5.4c-5.6,1.1-11.3,2-17,2.9
			c-5.6,0.9-11.1,1.7-16.7,2.5c-4.1,0.6-8.3,1-12.5,1.4c-4.2,0.5-8.3,0.9-12.5,1.3c-3.5,0.3-7.1,0.5-10.6,0.7
			c-4.7,0.3-9.3,0.7-14,0.9c-5.8,0.2-11.6,0.4-17.4,0.2c-6.7-0.1-13.3-0.5-19.9-1.9c-2.6-0.6-5.3-1.5-7.7-2.8
			c-4.8-2.5-6.7-7-7.2-12.1c-0.6-5.1,0.5-10,1.1-15c0.5-3.8,1-7.5,1.4-11.3c0.5-4,1-8,1.5-12c0.4-3.3,0.8-6.6,1.2-10
			c0.4-3.4,0.9-6.8,1.3-10.2c0.4-3.3,0.8-6.6,1.2-9.8c0.4-3.5,0.9-7,1.3-10.5c0.3-2.4,0.4-4.8,0.9-7.1c1.3-6.3,5.2-10.6,11-13.2
			c3.5-1.6,7.1-2.5,10.9-2.6c3.8-0.1,7.7,0,11.5,0c8.6,0.1,17.2,0.4,25.9,0.4c4.5,0,9-0.2,13.5-0.4c3.9-0.2,7.8-0.4,11.7-0.7
			c1.8-0.1,3.6-0.3,5.3-0.5c0.4,0,0.8-0.5,1-0.9c1.9-3.5,3.8-7.1,5.8-10.5c4.2-7.3,10.4-12.1,18.3-14.8c3.3-1.2,6.6-2.2,9.9-3.2
			c0.9-0.3,1.3-0.6,1.2-1.5c-0.1-1.8,0-3.5,0-5.3c0.1-12.2,2.8-23.7,9.4-34.1c5.4-8.7,10.9-17.3,16.4-25.9c1.5-2.4,1.6-4.9,0.4-7.4
			c-0.7-1.4-1.7-2.7-2.5-4.1c-1.2-1.9-2.5-3.8-3.7-5.8c-0.8-1.3-1.8-1.9-3.3-1.8c-3.4,0.1-6.8,0.1-10.2,0c-1.6,0-3.1,0.1-4.5,0.8
			c-0.5,0.2-1,0.3-1.7,0.6c0-1.1,0-2.1,0-3.2c-0.9,0.2-1.7,0.4-2.6,0.7c0.2-1.3,0.3-2.4,0.5-3.6c0.2-1,0-1.7-0.7-2.5
			c-1.1-1.3-1.8-2.8-2.8-4.1c-0.5-0.6-1.2-1.2-1.8-1.6c-3.1-2.1-6.4-3.9-9.3-6.2c-7.4-5.8-11.8-13.6-13.2-22.9
			c-1-6.6-1.1-13.3,1.3-19.6c0.9-2.3,2.2-4.5,3.7-6.4c3.9-5,10.5-5.9,16.2-3.8c1.6,0.6,3.2,1.5,4.8,2.2c0.3,0.2,0.7,0.3,1,0.5
			c2.2-6,5.5-11.1,9.7-15.8c8.5-9.5,18.9-15.9,31.3-19c5.9-1.5,11.8-2.6,17.8-3.2c1.9-0.2,3.7-0.4,5.5-0.7c0.7-0.1,1.3-0.5,1.8-0.9
			c3.7-3.3,7.3-6.7,11.1-9.9c5.1-4.4,11-7.3,17.3-9.3c4.4-1.4,8.9-2.7,13.3-4c0.3-0.1,0.7-0.1,1-0.2c0,0.1,0.1,0.2,0.1,0.3
			c-2.3,2.4-4.5,4.8-7,7.3c2.4-0.4,4.6-0.7,6.8-1c0.1,0.1,0.1,0.2,0.2,0.3c-3.3,3.4-6.6,6.9-10.1,10.4c9.3-2.8,18.6-4.5,28.2-3.4
			c0.1,0.2,0.1,0.3,0.2,0.5c-3.2,1.9-6.4,3.7-9.9,5.8c3.4,0,6.6,0,9.7,0c0,0.1,0.1,0.2,0.1,0.3C289.4,48.1,286.5,49.5,283.3,51.2z
			 M131.9,307.8c-0.4,3.3-0.7,6.4-1,9.5c-0.3,3-0.7,6-1.1,9.1c-0.3,3-0.6,6-1,9.1c-0.4,3.7-0.9,7.4-1.3,11.1c-0.3,3-0.6,6-1,9.1
			c-0.4,3.9-0.9,7.7-1.3,11.5c-0.2,2.4-0.2,2.4,2.4,2.2c5-0.4,10-0.8,15-1.2c0.6,0,1-0.2,1-0.9c0-0.9,0.2-1.7,0.3-2.6
			c0.4-3.3,0.7-6.6,1.1-10c0.3-3.4,0.6-6.7,1-10.1c0.3-3.3,0.7-6.6,1.1-10c0.3-3.3,0.6-6.7,1-10c0.3-3.3,0.7-6.6,1.1-10
			c0.3-3.1,0.6-6.2,1-9.3c0-0.2,0.4-0.6,0.7-0.6c1.5-0.3,3.1-0.5,4.6-0.7c1.8-0.2,3.5-0.4,5.5-0.6c-2.4,20.7-4.9,41.1-7.3,61.7
			c2.8-0.4,5.4-0.7,7.9-1.1c3-0.4,5.9-0.9,8.9-1.3c0.8-0.1,1.1-0.5,1.2-1.3c0.3-3,0.6-5.9,1-8.8c0.3-3,0.7-6,1.1-8.9
			c0.3-2.9,0.7-5.9,1-8.8c0.4-3.6,0.9-7.2,1.3-10.8c0.4-3.6,0.8-7.2,1.2-10.8c0.4-3.6,0.9-7.2,1.3-10.9c0.4-3.8,0.8-7.6,1.3-11.3
			c0.2-1.6,0.1-2.8-1.3-3.9c-1-0.8-1.9-1.7-2.8-2.7c-0.7-0.8-1.5-0.9-2.5-0.8c-6.7,0.9-13.3,1.8-20,2.7c-1.1,0.1-2,0.5-2.8,1.3
			c-1.9,2.1-3.9,4.1-6,6.3c-2.2-1.5-4.2-2.9-6.3-4.3c-0.3-0.2-0.8-0.4-1.1-0.4c-3.1,0.1-6.2,0.3-9.2,0.5c-3.8,0.3-7.7,0.6-11.5,0.9
			c-2.6,0.2-5.2,0.3-7.7,0.5c-0.7,0-1.3,0.2-1.3,1.2c-0.2,2.3-0.6,4.5-0.8,6.8c-0.5,4.2-0.9,8.4-1.4,12.6c-0.6,4.8-1.2,9.6-1.8,14.5
			c-0.5,4.2-0.9,8.5-1.4,12.7c-0.6,5.5-1.3,10.9-2,16.4c-0.6,5.1-1.2,10.3-1.8,15.4c-0.1,0.9,0.1,1.3,1.2,1.2
			c5.2-0.2,10.4-0.4,15.7-0.5c0.9,0,1-0.5,1.1-1.2c0.3-3.1,0.6-6.1,1-9.2c0.4-3.2,0.7-6.4,1.1-9.6c0.3-3,0.6-6,1-9
			c0.3-3.1,0.7-6.2,1.1-9.3c0.3-3.1,0.7-6.1,1-9.2c0.4-3.2,0.7-6.3,1.1-9.5c0.2-1.6,0.3-3.2,0.5-4.8c0.1-0.7,0.3-1.2,1.2-1.1
			c0.8,0,1.7-0.2,2.5-0.3C128.1,308.2,129.9,308,131.9,307.8z M320.9,112.3c-0.4,0-0.5,0-0.5,0c-0.4,0.2-0.7,0.4-1,0.7
			c-2.2,1.7-4.3,3.5-4.5,6.5c-0.2,2.5-0.4,5.1-0.8,7.6c-1.2,9.2-8.5,17.7-17.4,20c-6.4,1.7-12.8,1.2-19.2-0.5
			c-2.7-0.7-5.5-1.6-7.6-3.5c-5.3-4.8-9.3-10.6-11.6-17.4c-1.1-3.2-2.4-6.3-4.7-8.9c-2.1-2.4-4.7-2.6-7.2-0.7
			c-1.6,1.2-2.6,2.8-3.3,4.6c-1.2,3-2.3,6-3.5,9c-2.7,6.9-7.2,12.1-13.9,15.2c-7.4,3.3-15.1,4.1-23,2.7c-5.2-0.9-9.6-3.5-12.6-7.9
			c-3.2-4.6-4.2-9.9-4.9-15.4c-0.3-2.4-0.5-4.8-1.9-6.9c-1.2-1.8-2.9-3-5.3-3.3c-0.1,4.9,1.1,9.4,2.8,13.9c3,8.2,8.1,14.6,16,18.6
			c6,3,12.4,4.4,19.1,4.7c1.4,0.1,2.9,0,4.4,0c-0.7,1.4-1.4,2.7-2,4c-4.1,8.9-5.5,18.1-2.9,27.6c2.3,8.5,6.8,15.5,14.4,20.3
			c8.7,5.4,18.3,6.6,28.2,4.8c17.9-3.2,26.7-18.3,27.6-32.9c0.4-6.6-1.3-12.8-4.1-18.8c-0.8-1.7-1.7-3.3-2.6-5c1.3,0,2.5,0,3.6,0
			c5.8-0.1,11.4-1,16.8-3c6.7-2.5,12.2-6.5,15.7-13c2.4-4.5,3.9-9.4,4.9-14.4C320.3,118.1,320.5,115.2,320.9,112.3z M254.2,311.4
			c0.1,0,0.2-0.1,0.3-0.1c0.2,0.5,0.5,1,0.7,1.5c3.4,8,6.7,16.1,10.1,24.2c0.3,0.8,0.6,1,1.5,0.8c4-1.2,8-2.3,12-3.4
			c1-0.3,1.4-0.8,1.5-1.7c0.1-0.9,0.2-1.8,0.3-2.7c0.3-2.9,0.6-5.8,1-8.7c0.4-3.7,0.9-7.4,1.3-11.1c0.3-2.9,0.7-5.9,1-8.8
			c0.3-3,0.7-6,1.1-9.1c0.3-2.9,0.7-5.8,1-8.7c0.4-3,0.7-6,1.1-9.1c0.3-2.9,0.7-5.9,1-8.8c0.4-3.5,0.9-7.1,1.3-10.6
			c0-0.2-0.1-0.3-0.2-0.6c-5.8,1.5-11.5,3-17.3,4.5c-0.3,0.1-0.7,0.5-0.7,0.8c-0.4,3-0.8,6-1.1,9c-0.6,5.8-1.2,11.6-1.9,17.3
			c-0.1,1.2-0.3,2.5-0.5,3.7c-0.1,0-0.2,0-0.3,0c-0.2-0.6-0.5-1.2-0.7-1.8c-3-7.9-6-15.9-9-23.8c-0.3-0.8-0.6-1-1.5-0.8
			c-4.3,1.2-8.6,2.3-12.9,3.5c-0.9,0.2-1.2,0.6-1.3,1.6c-0.2,2.2-0.5,4.3-0.7,6.5c-0.4,3.5-0.9,6.9-1.3,10.4
			c-0.4,3.4-0.8,6.8-1.2,10.2c-0.4,3.4-0.9,6.9-1.3,10.3c-0.4,3.5-0.8,6.9-1.2,10.4c-0.4,3.5-0.9,7-1.3,10.5
			c-0.4,3.5-0.9,6.9-1.3,10.4c-0.4,3.3-0.8,6.6-1.2,9.8c0,0.2,0.1,0.4,0.2,0.7c0.4-0.1,0.7-0.2,1.1-0.3c5-1.6,10.1-3.3,15.1-4.9
			c1.9-0.6,1.9-0.6,2.1-2.6c0.3-2.9,0.7-5.7,1.1-8.6c0.4-3.4,0.8-6.7,1.2-10.1C253.4,317.9,253.8,314.7,254.2,311.4z M180.4,353.3
			c0.1,0.2,0.1,0.9,0.5,1.2c1.6,1.4,3.2,2.8,4.8,4.1c0.4,0.3,1,0.4,1.4,0.3c10.3-2.6,20.6-5.1,30.8-7.8c0.6-0.1,1.2-0.5,1.6-1
			c2-2.2,4.1-4.5,6-6.8c0.4-0.5,0.7-1.3,0.8-2.1c0.3-1.7,0.4-3.4,0.6-5.1c0.3-3.1,0.7-6.1,1.1-9.2c0.3-3,0.7-6,1-9.1
			c0.3-3.1,0.7-6.2,1.1-9.3c0.3-3,0.7-6,1-9c0.4-3.7,0.9-7.3,1.3-11c0.5-3.9,0.9-7.8,1.3-11.7c0.1-1.2,0-2.1-1.1-2.8
			c-1.4-0.8-2.6-2-4-2.9c-0.4-0.3-1-0.4-1.4-0.3c-10.4,2.7-20.8,5.4-31.2,8.1c-0.5,0.1-1.1,0.4-1.5,0.8c-2,1.9-3.9,3.9-5.8,5.8
			c-0.3,0.3-0.6,0.7-0.7,1.1c-0.3,2.2-0.5,4.5-0.7,6.7c-0.3,3-0.7,6-1,9.1c-0.3,3.1-0.7,6.2-1.1,9.3c-0.3,3-0.6,6-1,8.9
			c-0.4,3.7-0.9,7.4-1.3,11.1c-0.3,3.1-0.6,6.1-1,9.2C181.4,345.1,180.9,349,180.4,353.3z M407.5,279.5c-0.2,0.1-0.3,0.1-0.4,0.1
			c-5.8,4.1-11.6,8.3-17.4,12.4c-0.3,0.2-0.5,0.6-0.6,0.9c-0.1,1-0.2,2-0.2,3c-0.1,2.1-0.3,4.2-0.4,6.4c0,0.3,0.2,0.8,0.5,1
			c1.2,1.1,2.5,2.2,3.6,3.3c0.6,0.6,1.3,0.7,2.1,0.6c2-0.2,4-0.5,6-0.6c3.6-0.3,7.2-0.6,10.8-1c3.9-0.4,7.8-0.7,11.7-1.2
			c1.1-0.1,2.4,0.2,3.4-0.8c2.3-2.3,4.6-4.6,6.9-6.9c0.3-0.3,0.5-0.8,0.6-1.3c0.4-2.7,0.7-5.5,1-8.3c0.4-3.5,0.9-7.1,1.3-10.6
			c0.3-2.9,0.7-5.9,1-8.8c0.4-3.6,0.9-7.2,1.3-10.7c0.4-3.5,0.8-7.1,1.2-10.6c0.4-3.5,0.9-7.1,1.3-10.6c0.5-3.7,0.9-7.5,1.3-11.2
			c0.1-0.8,0-1.3-1-1.2c-1.8,0.2-3.6,0.3-5.5,0.5c-3.3,0.2-6.5,0.4-9.8,0.7c-0.4,0-1,0.4-1.2,0.8c-0.2,0.4-0.2,1-0.3,1.6
			c-0.5,4.3-0.9,8.7-1.4,13c-0.6,5-1.2,10-1.8,15.1c-0.1,0.9-0.4,1.2-1.3,1.2c-2.4,0-4.8,0-7.2,0c-1.4,0-1.4-0.2-1.3-1.6
			c0.3-3.5,0.6-7,0.9-10.6c0.2-2.4,0.3-4.7,0.5-7.1c0.3-3.4,0.6-6.7,0.9-10.1c0.1-1-0.3-1.3-1.2-1.1c-5,0.8-9.9,1.5-14.9,2.3
			c-0.7,0.1-1.2,0.3-1.2,1.2c-0.2,2.3-0.5,4.6-0.8,6.9c-0.6,5.7-1.2,11.5-1.9,17.2c-0.6,5.7-1.4,11.4-2,17.1c0,0.4,0.2,1,0.6,1.2
			c1.1,1,2.3,1.9,3.4,2.9c1.4,1.4,2.8,2.1,5,1.7c4.5-0.9,9.1-1.4,13.6-2.1c1.4-0.2,2.8-0.4,4.2-0.6c0,0.9,0.1,1.7,0,2.5
			c-0.3,3-0.6,6-0.8,9.1c-0.1,1.1-0.5,1.6-1.5,1.6c-2.6,0.2-5.2,0.3-7.9,0.5c-1,0.1-1.2-0.3-1.2-1.2
			C407.5,284,407.5,281.8,407.5,279.5z M316.2,324.5c0.5-0.1,0.8-0.1,1.1-0.2c4.5-1.2,9-2.4,13.5-3.5c1.7-0.4,2.8-0.8,2.9-3
			c0.1-3.6,0.8-7.2,1.2-10.8c0.3-2.9,0.7-5.8,1-8.7c0.4-3.7,0.9-7.3,1.3-11c0.3-2.9,0.6-5.7,1-8.6c0.1-0.9-0.1-1.4-0.8-1.9
			c-2.5-1.5-4.9-3.1-7.3-4.7c-1.3-0.9-1.3-0.9-0.7-2.3c4.6-9.6,9.3-19.1,13.9-28.7c0.2-0.3,0.3-0.7,0.5-1.1
			c-0.3,0.1-0.5,0.1-0.7,0.1c-5.9,1.3-11.8,2.6-17.7,3.8c-0.8,0.2-1.2,0.5-1.5,1.2c-3.3,6.9-6.7,13.7-10.1,20.5
			c-0.6,1.3-1.3,2.5-1.9,3.8c-0.1,0-0.2-0.1-0.4-0.1c1.1-7.3,2.1-14.6,3.2-21.9c-0.3,0-0.4,0-0.6,0c-5.8,1.7-11.7,3.3-17.5,5.1
			c-0.3,0.1-0.6,0.5-0.7,0.9c-0.2,1.3-0.3,2.6-0.5,3.8c-0.3,2.4-0.5,4.8-0.8,7.1c-0.4,3.2-0.7,6.4-1.1,9.6c-0.3,2.5-0.5,4.9-0.8,7.4
			c-0.3,3.2-0.7,6.3-1.1,9.5c-0.3,3.2-0.7,6.4-1,9.5c-0.3,3.2-0.7,6.3-1.1,9.5c-0.3,3.2-0.6,6.4-1,9.5c-0.4,3.8-0.9,7.6-1.3,11.4
			c0,0.3,0.1,0.6,0.1,0.9c0.2,0,0.4,0,0.5-0.1c5-1.2,9.9-2.3,14.9-3.5c2.3-0.6,2.4-0.5,2.7-2.8c0.4-3.4,0.8-6.7,1.1-10.1
			c0.3-3.4,0.6-6.9,1-10.3c0.4-4.4,0.9-8.8,1.3-13.2c0.2-1.5,0.4-3,0.6-4.6c3.4,1,6.7,2,9.9,3c0.3,0.1,0.5,0.7,0.5,1.1
			c-0.3,2.8-0.6,5.7-1,8.5c-0.4,3.5-0.8,7.1-1.3,10.6c-0.4,2.9-0.7,5.9-1.1,8.8C316.5,321,316.4,322.6,316.2,324.5z M469.2,240.5
			c-0.4,0.8-0.7,1.2-1,1.7c-8.7,14-17.3,27.9-26,41.9c-0.3,0.5-0.6,1.2-0.6,1.8c-0.2,1.9-0.3,3.8-0.4,5.7c-0.1,1.6-0.2,3.2-0.3,4.8
			c-0.2,2.4-0.3,4.8-0.5,7.2c0.3,0,0.6,0.1,0.8,0.1c3.4,0.1,6.8,0.2,10.2,0.2c5.5,0.1,10.9,0.2,16.4,0.2c4.4,0.1,8.8,0.1,13.3,0.2
			c0.6,0,0.8-0.2,0.9-0.8c0.5-5.4,1.1-10.9,1.6-16.3c0.1-1.4,0-1.6-1.4-1.7c-3-0.2-5.9-0.3-8.9-0.5c-3.4-0.2-6.8-0.3-10.2-0.5
			c-0.2,0-0.5-0.1-0.8-0.3c0.2-0.4,0.4-0.7,0.6-1.1c8.3-13.1,16.6-26.2,25-39.3c1.1-1.7,1.5-3.4,1.7-5.2c0.3-3.4,0.7-6.7,1.1-10.1
			c0.1-1.4,0.2-2.8,0.4-4.2c-2.2-0.1-4.1-0.3-6.1-0.3c-6.1-0.2-12.1-0.3-18.2-0.5c-5.1-0.1-10.3-0.2-15.4-0.3c-1,0-1.3,0.4-1.4,1.2
			c-0.2,1.6-0.3,3.3-0.5,4.9c-0.3,3.3-0.6,6.7-1,10c-0.2,1.2,0.2,1.3,1.1,1.3c6,0,12.1,0,18.1-0.1
			C467.9,240.6,468.4,240.6,469.2,240.5z M365.4,264.4c-0.1-0.4-0.1-0.6-0.1-0.8c0.2-3.7,0.4-7.4,0.7-11.1c0-0.3,0.5-0.6,0.8-0.7
			c5.4-1.1,10.8-2.2,16.2-3.2c0.8-0.2,1.2-0.5,1.5-1.3c1.6-5.1,3.3-10.3,5-15.4c0.2-0.7,0.4-1.5,0.7-2.3c-0.5,0.1-0.8,0.1-1.2,0.2
			c-9.3,2-18.6,4.1-27.9,6.1c-3.2,0.7-6.5,1.4-9.7,2.1c-0.5,0.1-1.1,0.5-1.2,0.9c-0.3,1.4-0.4,2.9-0.5,4.4c-0.3,2.9-0.7,5.8-1,8.7
			c-0.4,3.6-0.9,7.2-1.3,10.9c-0.3,2.9-0.7,5.8-1,8.7c-0.4,3.6-0.9,7.2-1.3,10.7c-0.3,2.9-0.7,5.9-1,8.8c-0.4,3.7-0.9,7.3-1.3,11
			c-0.3,2.9-0.7,5.9-1.1,8.8c-0.3,2.2-0.5,4.3-0.7,6.6c0.5,0,0.9-0.1,1.3-0.1c10.9-2.3,21.9-4.6,32.8-6.8c0.8-0.2,1.3-0.5,1.6-1.3
			c1.6-4.3,3.2-8.6,4.8-12.9c0.7-1.8,1.3-3.6,2.1-5.6c-7.6,1.5-15,3-22.5,4.5c0-0.6,0-0.9,0-1.2c0.3-3.5,0.6-7,0.8-10.6
			c0.1-0.9,0.4-1.2,1.2-1.4c2.7-0.5,5.3-1,7.9-1.5c0.8-0.1,1.1-0.5,1.3-1.1c2.1-5.7,4.2-11.4,6.3-17.2c0.1-0.3,0.1-0.5,0.2-0.9
			C374.3,262.6,370,263.5,365.4,264.4z M101.1,292.5c-0.2-0.1-0.3-0.1-0.4-0.1c-5.3-0.2-10.7-0.3-16-0.5c-4.7-0.1-9.5-0.2-14.2-0.3
			c-2.3,0-4.6-0.2-6.9-0.2c-0.3,0-0.9,0.4-0.9,0.6c-0.4,3.1-0.8,6.3-1.2,9.4c-0.4,3.5-0.8,6.9-1.2,10.4c-0.4,3.5-0.9,7-1.3,10.5
			c-0.4,3.5-0.8,7-1.2,10.5c-0.5,4.1-1,8.1-1.5,12.2c-0.5,4.1-0.9,8.3-1.4,12.5c-0.5,4.1-1,8.2-1.5,12.3c-0.1,0.9,0.1,1.5,1.2,1.4
			c0.7-0.1,1.4,0.2,2.2,0.2c4.4,0.2,8.8,0.3,13.1,0.5c5.5,0.2,11,0.4,16.4,0.7c0.8,0,1.2-0.2,1.5-1c1.5-4.3,3.1-8.7,4.7-13
			c0.5-1.5,1-2.9,1.7-4.6c-7.4,0-14.6,0-21.7,0c0-0.3-0.1-0.4-0.1-0.5c0.7-3.7,1.3-7.5,2-11.2c0.1-0.7,0.5-0.9,1.1-0.9
			c2.2,0,4.4,0,6.6,0c0.8,0,1.2-0.2,1.4-1c2-5.4,4-10.7,6.1-16c0.1-0.3,0.2-0.7,0.4-1.2c-0.6,0-1,0-1.4,0c-3.7,0-7.3,0-11,0
			c-0.9,0-1.1-0.3-1-1.2c0.4-3.3,0.7-6.6,1-9.9c0.1-1.5,0.1-1.5,1.6-1.5c4.7,0,9.4,0,14.1,0c1.1,0,1.5-0.4,1.9-1.3
			c1.7-4.7,3.4-9.4,5.2-14.2C100.4,294.4,100.8,293.5,101.1,292.5z M341.4,223.8c0.6-0.1,0.8-0.1,1-0.1c10.5-2.4,21.1-5,31.6-7.3
			c15.7-3.4,31.6-6.4,47.6-8.3c5.2-0.6,10.4-1.1,15.5-1.6c0.7-0.1,1-0.3,1.2-1c0.3-1.3,0.7-2.6,0.9-3.9c0.7-5.1,1.4-10.2,2.1-15.3
			c0.5-3.8,0.2-7.5-0.4-11.3c-0.7-4.9-3-9-6.1-12.7c-5.4-6.4-12.3-9.8-20.7-9.9c-3.6-0.1-7.2,0.4-10.8,0.9c-5.7,0.8-11.1,2.6-16,5.7
			c-9.2,6-16.5,13.9-23.1,22.5c-5.7,7.4-10,15.6-14.2,23.9C347.2,211.3,344.4,217.4,341.4,223.8z M318.5,102.4
			c-2.1-4.1-4.1-8.1-7-11.4c-1.1-1.3-2.6-2-4.3-2c-2.8,0.1-5.6,0.1-8.4,0.4c-7.2,0.8-14.3,2.3-21.1,4.6c-9.5,3-18.4,7.4-27.3,11.7
			c-0.8,0.4-1.3,0.4-2.1,0c-9.5-4.3-19-8.6-28.8-12c-5.6-2-11.4-3-17.2-4c-3.9-0.7-7.9-1.2-11.9-0.9c-0.9,0.1-2.1,0.4-2.7,1
			c-2.8,2.9-5.2,6.1-7,9.8c-0.4,0.9-0.7,1.9-1.1,3c5.7-0.3,11.2-0.6,16.6-0.8c4.9-0.2,9.8-0.3,14.7-0.6c5.2-0.3,10.3-0.4,15.4,0.6
			c7.4,1.5,14.8,3.2,22.1,4.8c0.5,0.1,1.1,0.2,1.7,0.1c4.5-0.8,9-1.7,13.6-2.5c8.4-1.5,16.9-3.1,25.5-3.2c5.4,0,10.8,0.1,16.2,0.3
			C309.6,101.6,313.9,102,318.5,102.4z M280.7,112.1c-0.1-0.1-0.1-0.2-0.2-0.3c-4.9,0.9-9.8,1.7-14.8,2.6c1.5,3.6,2.9,7,4.5,10.8
			C272.6,119.8,275.8,115.3,280.7,112.1z M205,112.1c-3.9,0-7.6,0-11.4,0c0.4,3.6,0.8,7,1.2,10.8C197.5,118.5,200.9,115,205,112.1z"
			/>
		<path class="st0" d="M131.9,307.8c-2,0.2-3.8,0.4-5.7,0.6c-0.8,0.1-1.7,0.3-2.5,0.3c-0.9,0-1.1,0.5-1.2,1.1
			c-0.2,1.6-0.3,3.2-0.5,4.8c-0.4,3.2-0.7,6.3-1.1,9.5c-0.3,3.1-0.6,6.1-1,9.2c-0.3,3.1-0.7,6.2-1.1,9.3c-0.3,3-0.6,6-1,9
			c-0.4,3.2-0.7,6.4-1.1,9.6c-0.3,3.1-0.7,6.1-1,9.2c-0.1,0.7-0.2,1.2-1.1,1.2c-5.2,0.1-10.4,0.3-15.7,0.5c-1,0-1.3-0.3-1.2-1.2
			c0.6-5.1,1.2-10.3,1.8-15.4c0.7-5.5,1.4-10.9,2-16.4c0.5-4.2,0.9-8.5,1.4-12.7c0.6-4.8,1.2-9.6,1.8-14.5c0.5-4.2,0.9-8.4,1.4-12.6
			c0.3-2.3,0.6-4.5,0.8-6.8c0.1-1,0.6-1.1,1.3-1.2c2.6-0.2,5.2-0.3,7.7-0.5c3.8-0.3,7.7-0.6,11.5-0.9c3.1-0.2,6.2-0.4,9.2-0.5
			c0.4,0,0.8,0.2,1.1,0.4c2.1,1.4,4.2,2.8,6.3,4.3c2-2.1,4.1-4.1,6-6.3c0.8-0.9,1.7-1.2,2.8-1.3c6.7-0.9,13.3-1.8,20-2.7
			c0.9-0.1,1.8-0.1,2.5,0.8c0.8,1,1.8,1.9,2.8,2.7c1.4,1,1.5,2.3,1.3,3.9c-0.5,3.8-0.9,7.5-1.3,11.3c-0.4,3.6-0.9,7.2-1.3,10.9
			c-0.4,3.6-0.8,7.2-1.2,10.8c-0.4,3.6-0.9,7.2-1.3,10.8c-0.3,2.9-0.7,5.9-1,8.8c-0.3,3-0.7,6-1.1,8.9c-0.3,2.9-0.7,5.9-1,8.8
			c-0.1,0.9-0.3,1.2-1.2,1.3c-3,0.4-5.9,0.8-8.9,1.3c-2.6,0.4-5.1,0.7-7.9,1.1c2.4-20.6,4.9-41,7.3-61.7c-2,0.2-3.7,0.4-5.5,0.6
			c-1.5,0.2-3.1,0.4-4.6,0.7c-0.3,0-0.7,0.4-0.7,0.6c-0.4,3.1-0.6,6.2-1,9.3c-0.3,3.3-0.7,6.6-1.1,10c-0.3,3.3-0.6,6.7-1,10
			c-0.3,3.3-0.7,6.6-1.1,10c-0.3,3.4-0.6,6.7-1,10.1c-0.3,3.3-0.7,6.6-1.1,10c-0.1,0.9-0.2,1.7-0.3,2.6c0,0.7-0.4,0.9-1,0.9
			c-5,0.4-10,0.8-15,1.2c-2.5,0.2-2.6,0.2-2.4-2.2c0.4-3.9,0.9-7.7,1.3-11.5c0.3-3,0.6-6,1-9.1c0.4-3.7,0.9-7.4,1.3-11.1
			c0.3-3,0.7-6,1-9.1c0.3-3,0.7-6,1.1-9.1C131.2,314.2,131.6,311.1,131.9,307.8z"/>
		<path class="st1" d="M320.9,112.3c-0.4,2.9-0.6,5.8-1.2,8.7c-1,5-2.5,9.9-4.9,14.4c-3.4,6.4-9,10.5-15.7,13c-5.4,2-11,2.9-16.8,3
			c-1.2,0-2.4,0-3.6,0c0.9,1.7,1.8,3.4,2.6,5c2.8,5.9,4.5,12.1,4.1,18.8c-0.9,14.7-9.6,29.8-27.6,32.9c-9.9,1.7-19.5,0.6-28.2-4.8
			c-7.6-4.7-12.1-11.8-14.4-20.3c-2.6-9.6-1.2-18.8,2.9-27.6c0.6-1.3,1.3-2.6,2-4c-1.5,0-3,0.1-4.4,0c-6.7-0.3-13.1-1.7-19.1-4.7
			c-7.9-4-13-10.4-16-18.6c-1.7-4.4-2.8-9-2.8-13.9c2.3,0.3,4,1.5,5.3,3.3c1.4,2.1,1.6,4.5,1.9,6.9c0.7,5.4,1.8,10.7,4.9,15.4
			c3.1,4.5,7.4,7,12.6,7.9c7.9,1.4,15.7,0.6,23-2.7c6.8-3,11.3-8.3,13.9-15.2c1.2-3,2.3-6,3.5-9c0.7-1.8,1.7-3.4,3.3-4.6
			c2.5-1.9,5.1-1.7,7.2,0.7c2.3,2.6,3.7,5.7,4.7,8.9c2.3,6.9,6.3,12.6,11.6,17.4c2.1,1.9,4.9,2.7,7.6,3.5c6.3,1.7,12.8,2.2,19.2,0.5
			c8.9-2.3,16.2-10.8,17.4-20c0.3-2.5,0.5-5.1,0.8-7.6c0.3-3,2.4-4.8,4.5-6.5c0.3-0.3,0.7-0.5,1-0.7
			C320.4,112.3,320.5,112.3,320.9,112.3z M256.6,203.3c0.3,0,0.6,0,0.9,0c0.3,0,0.6-0.1,0.9-0.1c7-0.8,12.7-4,16.8-9.8
			c3.3-4.6,4.8-9.9,5.5-15.4c0.2-1.6-0.7-3.4-2.6-3.7c-1.6-0.2-3,1.1-3.3,3c-0.2,1.4-0.4,2.9-0.7,4.3c-2.1,9.2-8.5,15.8-18.4,16
			c-1.3,0-2.4,0.9-2.7,2.1C252.4,201.7,254,203.4,256.6,203.3z M230,154.9c0.1,0.1,0.1,0.2,0.1,0.2c0.1,0,0.3,0.1,0.4,0.1
			c3.4,0.9,6.4,2.2,8.4,5.3c0.6,0.9,1.8,1.6,2.8,1.9c2.6,0.7,4.7-0.3,4.5-3.2c-0.1-1.4-0.9-2.4-1.9-3.2
			C239.9,152.3,235.1,152.3,230,154.9z M268.2,155c-4.1-2.4-9.5-2.9-13.8,0.6c-0.8,0.7-1.6,1.5-2,2.4c-1.1,2.1,0,4.3,2.1,4.5
			c2.2,0.2,3.9-0.5,5.1-2.3c1.3-2,3.1-3.3,5.3-4.1C266,155.7,267.1,155.4,268.2,155z"/>
		<path class="st0" d="M254.2,311.4c-0.4,3.2-0.8,6.5-1.2,9.7c-0.4,3.4-0.8,6.7-1.2,10.1c-0.4,2.9-0.8,5.7-1.1,8.6
			c-0.2,2-0.1,2-2.1,2.6c-5,1.6-10.1,3.3-15.1,4.9c-0.3,0.1-0.6,0.2-1.1,0.3c-0.1-0.3-0.2-0.5-0.2-0.7c0.4-3.3,0.8-6.6,1.2-9.8
			c0.4-3.5,0.9-6.9,1.3-10.4c0.4-3.5,0.9-7,1.3-10.5c0.4-3.5,0.8-6.9,1.2-10.4c0.4-3.4,0.9-6.9,1.3-10.3c0.4-3.4,0.8-6.8,1.2-10.2
			c0.4-3.5,0.9-6.9,1.3-10.4c0.3-2.2,0.6-4.3,0.7-6.5c0.1-0.9,0.4-1.3,1.3-1.6c4.3-1.1,8.6-2.3,12.9-3.5c0.9-0.2,1.2,0,1.5,0.8
			c3,8,6,15.9,9,23.8c0.2,0.6,0.5,1.2,0.7,1.8c0.1,0,0.2,0,0.3,0c0.2-1.2,0.4-2.5,0.5-3.7c0.6-5.8,1.2-11.6,1.9-17.3
			c0.3-3,0.7-6,1.1-9c0-0.3,0.4-0.7,0.7-0.8c5.7-1.5,11.5-3,17.3-4.5c0.1,0.2,0.2,0.4,0.2,0.6c-0.4,3.5-0.9,7.1-1.3,10.6
			c-0.3,2.9-0.7,5.9-1,8.8c-0.3,3-0.7,6-1.1,9.1c-0.3,2.9-0.7,5.8-1,8.7c-0.3,3-0.7,6-1.1,9.1c-0.3,2.9-0.7,5.9-1,8.8
			c-0.4,3.7-0.9,7.4-1.3,11.1c-0.3,2.9-0.7,5.8-1,8.7c-0.1,0.9-0.2,1.8-0.3,2.7c-0.1,0.9-0.5,1.4-1.5,1.7c-4,1.1-8,2.2-12,3.4
			c-0.9,0.3-1.2,0-1.5-0.8c-3.3-8.1-6.7-16.1-10.1-24.2c-0.2-0.5-0.5-1-0.7-1.5C254.4,311.4,254.3,311.4,254.2,311.4z"/>
		<path class="st0" d="M180.4,353.3c0.5-4.3,1-8.2,1.4-12.1c0.3-3.1,0.6-6.1,1-9.2c0.4-3.7,0.9-7.4,1.3-11.1c0.3-3,0.7-6,1-8.9
			c0.3-3.1,0.7-6.2,1.1-9.3c0.3-3,0.7-6,1-9.1c0.2-2.2,0.4-4.5,0.7-6.7c0.1-0.4,0.4-0.8,0.7-1.1c1.9-2,3.9-3.9,5.8-5.8
			c0.4-0.4,0.9-0.7,1.5-0.8c10.4-2.7,20.8-5.4,31.2-8.1c0.4-0.1,1.1,0,1.4,0.3c1.4,0.9,2.6,2,4,2.9c1.2,0.7,1.3,1.6,1.1,2.8
			c-0.5,3.9-0.9,7.8-1.3,11.7c-0.4,3.7-0.9,7.3-1.3,11c-0.3,3-0.7,6-1,9c-0.4,3.1-0.7,6.2-1.1,9.3c-0.3,3-0.7,6-1,9.1
			c-0.3,3.1-0.7,6.1-1.1,9.2c-0.2,1.7-0.3,3.4-0.6,5.1c-0.1,0.7-0.3,1.5-0.8,2.1c-1.9,2.3-4,4.6-6,6.8c-0.4,0.4-1,0.8-1.6,1
			c-10.3,2.6-20.6,5.2-30.8,7.8c-0.4,0.1-1.1,0-1.4-0.3c-1.7-1.3-3.3-2.6-4.8-4.1C180.5,354.1,180.5,353.5,180.4,353.3z M214.1,293
			c-0.3,0-0.5-0.1-0.7-0.1c-3,0.6-6.1,1.1-9.1,1.7c-0.3,0.1-0.8,0.6-0.8,1c-0.2,1.7-0.4,3.3-0.5,5c-0.3,3.4-0.6,6.9-1,10.3
			c-0.4,4.2-0.9,8.5-1.3,12.7c-0.4,3.7-0.8,7.5-1.1,11.2c-0.1,1.1-0.2,2.3-0.3,3.6c3.2-0.7,6.1-1.4,9.1-2.1c0.3-0.1,0.6-0.5,0.7-0.8
			c0.2-0.8,0.2-1.7,0.3-2.5c0.4-3.5,0.8-6.9,1.2-10.4c0.4-3.6,0.9-7.2,1.3-10.9c0.3-2.8,0.7-5.7,1-8.5
			C213.3,299.9,213.7,296.5,214.1,293z"/>
		<path class="st0" d="M407.5,279.5c0,2.3,0,4.5,0,6.6c0,0.9,0.2,1.3,1.2,1.2c2.6-0.2,5.2-0.3,7.9-0.5c1-0.1,1.5-0.5,1.5-1.6
			c0.2-3,0.6-6.1,0.8-9.1c0.1-0.8,0-1.6,0-2.5c-1.4,0.2-2.8,0.4-4.2,0.6c-4.5,0.7-9.1,1.2-13.6,2.1c-2.2,0.4-3.6-0.2-5-1.7
			c-1-1.1-2.3-1.9-3.4-2.9c-0.3-0.3-0.6-0.8-0.6-1.2c0.6-5.7,1.3-11.4,2-17.1c0.7-5.7,1.2-11.5,1.9-17.2c0.3-2.3,0.6-4.6,0.8-6.9
			c0.1-0.8,0.6-1.1,1.2-1.2c5-0.8,9.9-1.5,14.9-2.3c0.9-0.1,1.3,0.1,1.2,1.1c-0.3,3.4-0.6,6.7-0.9,10.1c-0.2,2.4-0.3,4.7-0.5,7.1
			c-0.3,3.5-0.5,7-0.9,10.6c-0.1,1.4,0,1.5,1.3,1.6c2.4,0,4.8,0,7.2,0c0.8,0,1.2-0.2,1.3-1.2c0.5-5,1.2-10,1.8-15.1
			c0.5-4.3,0.9-8.7,1.4-13c0.1-0.5,0-1.1,0.3-1.6c0.2-0.4,0.7-0.7,1.2-0.8c3.3-0.3,6.5-0.5,9.8-0.7c1.8-0.1,3.6-0.3,5.5-0.5
			c1-0.1,1.1,0.4,1,1.2c-0.5,3.7-0.9,7.5-1.3,11.2c-0.4,3.5-0.9,7.1-1.3,10.6c-0.4,3.5-0.8,7.1-1.2,10.6c-0.4,3.6-0.9,7.2-1.3,10.7
			c-0.3,2.9-0.7,5.9-1,8.8c-0.4,3.5-0.9,7.1-1.3,10.6c-0.3,2.8-0.6,5.5-1,8.3c-0.1,0.4-0.3,1-0.6,1.3c-2.3,2.3-4.6,4.6-6.9,6.9
			c-1,1-2.3,0.7-3.4,0.8c-3.9,0.5-7.8,0.8-11.7,1.2c-3.6,0.3-7.2,0.6-10.8,1c-2,0.2-4,0.4-6,0.6c-0.8,0.1-1.4,0-2.1-0.6
			c-1.2-1.2-2.4-2.2-3.6-3.3c-0.3-0.3-0.5-0.7-0.5-1c0.1-2.1,0.3-4.3,0.4-6.4c0.1-1,0.1-2,0.2-3c0-0.3,0.3-0.7,0.6-0.9
			c5.8-4.1,11.6-8.3,17.4-12.4C407.2,279.6,407.3,279.6,407.5,279.5z"/>
		<path class="st0" d="M316.2,324.5c0.2-1.8,0.4-3.5,0.6-5.1c0.3-2.9,0.7-5.9,1.1-8.8c0.4-3.5,0.8-7.1,1.3-10.6
			c0.3-2.8,0.7-5.7,1-8.5c0-0.3-0.2-1-0.5-1.1c-3.2-1-6.4-2-9.9-3c-0.2,1.6-0.4,3.1-0.6,4.6c-0.5,4.4-0.9,8.8-1.3,13.2
			c-0.3,3.4-0.6,6.9-1,10.3c-0.3,3.4-0.7,6.7-1.1,10.1c-0.3,2.2-0.4,2.2-2.7,2.8c-5,1.2-9.9,2.3-14.9,3.5c-0.1,0-0.3,0-0.5,0.1
			c0-0.3-0.1-0.6-0.1-0.9c0.4-3.8,0.9-7.6,1.3-11.4c0.3-3.2,0.6-6.4,1-9.5c0.3-3.2,0.7-6.3,1.1-9.5c0.3-3.2,0.7-6.4,1-9.5
			c0.3-3.2,0.7-6.3,1.1-9.5c0.3-2.5,0.5-4.9,0.8-7.4c0.3-3.2,0.7-6.4,1.1-9.6c0.3-2.4,0.5-4.8,0.8-7.1c0.1-1.3,0.3-2.6,0.5-3.8
			c0.1-0.3,0.4-0.8,0.7-0.9c5.8-1.7,11.7-3.4,17.5-5.1c0.1,0,0.3,0,0.6,0c-1.1,7.3-2.1,14.6-3.2,21.9c0.1,0,0.2,0.1,0.4,0.1
			c0.6-1.3,1.3-2.5,1.9-3.8c3.4-6.8,6.7-13.7,10.1-20.5c0.3-0.7,0.7-1,1.5-1.2c5.9-1.2,11.8-2.5,17.7-3.8c0.2,0,0.3-0.1,0.7-0.1
			c-0.2,0.5-0.3,0.8-0.5,1.1c-4.6,9.6-9.3,19.1-13.9,28.7c-0.7,1.4-0.7,1.4,0.7,2.3c2.4,1.6,4.8,3.2,7.3,4.7c0.7,0.5,1,0.9,0.8,1.9
			c-0.4,2.9-0.7,5.7-1,8.6c-0.4,3.7-0.9,7.3-1.3,11c-0.3,2.9-0.7,5.8-1,8.7c-0.4,3.6-1.1,7.2-1.2,10.8c-0.1,2.2-1.2,2.5-2.9,3
			c-4.5,1.1-9,2.3-13.5,3.5C317,324.3,316.7,324.4,316.2,324.5z"/>
		<path class="st0" d="M469.2,240.5c-0.8,0-1.3,0.1-1.9,0.1c-6,0-12.1,0-18.1,0.1c-1,0-1.3-0.1-1.1-1.3c0.5-3.3,0.7-6.7,1-10
			c0.2-1.6,0.3-3.3,0.5-4.9c0.1-0.8,0.4-1.2,1.4-1.2c5.1,0.1,10.3,0.2,15.4,0.3c6.1,0.1,12.1,0.3,18.2,0.5c2,0.1,4,0.2,6.1,0.3
			c-0.1,1.4-0.2,2.8-0.4,4.2c-0.4,3.4-0.8,6.7-1.1,10.1c-0.2,1.9-0.6,3.6-1.7,5.2c-8.4,13.1-16.7,26.2-25,39.3
			c-0.2,0.3-0.4,0.6-0.6,1.1c0.3,0.1,0.6,0.2,0.8,0.3c3.4,0.2,6.8,0.3,10.2,0.5c3,0.1,5.9,0.3,8.9,0.5c1.4,0.1,1.5,0.3,1.4,1.7
			c-0.5,5.4-1.1,10.9-1.6,16.3c-0.1,0.6-0.3,0.8-0.9,0.8c-4.4-0.1-8.8-0.2-13.3-0.2c-5.5-0.1-10.9-0.1-16.4-0.2
			c-3.4-0.1-6.8-0.1-10.2-0.2c-0.2,0-0.4,0-0.8-0.1c0.2-2.4,0.3-4.8,0.5-7.2c0.1-1.6,0.2-3.2,0.3-4.8c0.1-1.9,0.2-3.8,0.4-5.7
			c0.1-0.6,0.3-1.3,0.6-1.8c8.7-14,17.3-27.9,26-41.9C468.5,241.8,468.8,241.3,469.2,240.5z"/>
		<path class="st0" d="M365.4,264.4c4.5-0.9,8.9-1.8,13.4-2.8c-0.1,0.3-0.1,0.6-0.2,0.9c-2.1,5.7-4.2,11.4-6.3,17.2
			c-0.2,0.7-0.6,1-1.3,1.1c-2.7,0.4-5.3,1-7.9,1.5c-0.9,0.1-1.2,0.4-1.2,1.4c-0.2,3.5-0.5,7-0.8,10.6c0,0.3,0,0.6,0,1.2
			c7.5-1.5,14.9-3,22.5-4.5c-0.7,2-1.4,3.8-2.1,5.6c-1.6,4.3-3.2,8.6-4.8,12.9c-0.3,0.8-0.8,1.2-1.6,1.3
			c-10.9,2.3-21.9,4.6-32.8,6.8c-0.4,0.1-0.8,0.1-1.3,0.1c0.3-2.3,0.5-4.4,0.7-6.6c0.3-2.9,0.7-5.9,1.1-8.8c0.4-3.7,0.9-7.3,1.3-11
			c0.3-2.9,0.7-5.9,1-8.8c0.4-3.6,0.9-7.2,1.3-10.7c0.3-2.9,0.7-5.8,1-8.7c0.4-3.6,0.9-7.2,1.3-10.9c0.3-2.9,0.7-5.8,1-8.7
			c0.2-1.5,0.2-3,0.5-4.4c0.1-0.4,0.7-0.8,1.2-0.9c3.2-0.8,6.5-1.4,9.7-2.1c9.3-2,18.6-4.1,27.9-6.1c0.3-0.1,0.7-0.1,1.2-0.2
			c-0.2,0.8-0.4,1.5-0.7,2.3c-1.7,5.1-3.4,10.3-5,15.4c-0.3,0.8-0.7,1.1-1.5,1.3c-5.4,1-10.8,2.1-16.2,3.2c-0.3,0.1-0.8,0.4-0.8,0.7
			c-0.3,3.7-0.5,7.4-0.7,11.1C365.3,263.8,365.4,264.1,365.4,264.4z"/>
		<path class="st0" d="M101.1,292.5c-0.3,0.9-0.7,1.9-1,2.8c-1.7,4.7-3.5,9.4-5.2,14.2c-0.3,1-0.8,1.3-1.9,1.3
			c-4.7-0.1-9.4,0-14.1,0c-1.5,0-1.5,0-1.6,1.5c-0.3,3.3-0.6,6.6-1,9.9c-0.1,0.9,0.1,1.2,1,1.2c3.7,0,7.3,0,11,0c0.4,0,0.8,0,1.4,0
			c-0.2,0.5-0.3,0.8-0.4,1.2c-2,5.3-4.1,10.7-6.1,16c-0.3,0.7-0.7,1-1.4,1c-2.2,0-4.4,0-6.6,0c-0.6,0-1,0.2-1.1,0.9
			c-0.7,3.7-1.3,7.5-2,11.2c0,0.1,0,0.2,0.1,0.5c7.2,0,14.3,0,21.7,0c-0.6,1.7-1.1,3.1-1.7,4.6c-1.6,4.3-3.1,8.7-4.7,13
			c-0.3,0.8-0.7,1-1.5,1c-5.5-0.3-11-0.5-16.4-0.7c-4.4-0.2-8.8-0.3-13.1-0.5c-0.7,0-1.4-0.2-2.2-0.2c-1.1,0.1-1.3-0.5-1.2-1.4
			c0.5-4.1,1.1-8.2,1.5-12.3c0.5-4.1,0.9-8.3,1.4-12.5c0.5-4.1,1-8.1,1.5-12.2c0.4-3.5,0.8-7,1.2-10.5c0.4-3.5,0.9-7,1.3-10.5
			c0.4-3.5,0.8-6.9,1.2-10.4c0.4-3.1,0.7-6.3,1.2-9.4c0-0.3,0.6-0.6,0.9-0.6c2.3,0,4.6,0.1,6.9,0.2c4.7,0.1,9.5,0.2,14.2,0.3
			c5.3,0.1,10.7,0.3,16,0.5C100.8,292.4,100.9,292.5,101.1,292.5z"/>
		<path class="st0" d="M341.4,223.8c3-6.3,5.8-12.4,8.8-18.4c4.1-8.3,8.5-16.5,14.2-23.9c6.6-8.6,14-16.5,23.1-22.5
			c4.9-3.2,10.3-4.9,16-5.7c3.6-0.5,7.2-0.9,10.8-0.9c8.3,0.2,15.3,3.6,20.7,9.9c3.1,3.7,5.4,7.8,6.1,12.7c0.5,3.7,0.8,7.5,0.4,11.3
			c-0.7,5.1-1.4,10.2-2.1,15.3c-0.2,1.3-0.6,2.6-0.9,3.9c-0.2,0.6-0.5,0.9-1.2,1c-5.2,0.5-10.4,1-15.5,1.6
			c-16,1.9-31.8,4.8-47.6,8.3c-10.6,2.3-21.1,4.9-31.6,7.3C342.3,223.7,342,223.7,341.4,223.8z M358.5,208c0.8,0,1.2,0.1,1.5,0
			c2.5-0.4,5-0.8,7.5-1.4c10.4-2.3,20.8-4.6,31.1-7.1c10-2.4,20.1-3.6,30.4-3.9c1.3,0,2.6-0.2,3.8-0.5c1.4-0.3,2.5-1.1,3.1-2.6
			c2.4-6,2.9-12.2,1.9-18.5c-1.2-7.4-5.9-12-12.8-14.4c-4.9-1.7-9.9-1.9-15.1-1.2c-5.1,0.7-10,2.1-14.4,4.7
			c-4.4,2.7-8.1,6.3-11.6,10c-7.1,7.7-13.5,16-19.4,24.6C362.3,201,360.5,204.5,358.5,208z"/>
		<path class="st1" d="M318.5,102.4c-4.6-0.3-8.9-0.8-13.2-0.9c-5.4-0.2-10.8-0.3-16.2-0.3c-8.6,0-17,1.7-25.5,3.2
			c-4.5,0.8-9,1.7-13.6,2.5c-0.5,0.1-1.1,0-1.7-0.1c-7.4-1.6-14.7-3.3-22.1-4.8c-5.1-1-10.2-0.9-15.4-0.6c-4.9,0.3-9.8,0.4-14.7,0.6
			c-5.4,0.2-10.9,0.5-16.6,0.8c0.4-1.1,0.7-2.1,1.1-3c1.7-3.7,4.2-6.9,7-9.8c0.6-0.6,1.7-0.9,2.7-1c4-0.3,8,0.2,11.9,0.9
			c5.8,1,11.6,2.1,17.2,4c9.8,3.5,19.4,7.7,28.8,12c0.8,0.4,1.3,0.3,2.1,0c8.9-4.4,17.8-8.7,27.3-11.7c6.9-2.2,14-3.7,21.1-4.6
			c2.8-0.3,5.6-0.4,8.4-0.4c1.7-0.1,3.2,0.7,4.3,2C314.4,94.3,316.4,98.3,318.5,102.4z"/>
		<path class="st1" d="M280.7,112.1c-4.8,3.2-8.1,7.7-10.5,13.1c-1.6-3.7-3-7.2-4.5-10.8c5-0.9,9.9-1.7,14.8-2.6
			C280.5,112,280.6,112.1,280.7,112.1z"/>
		<path class="st1" d="M205,112.1c-4.1,2.9-7.5,6.4-10.3,10.8c-0.4-3.8-0.8-7.3-1.2-10.8C197.4,112.1,201.1,112.1,205,112.1z"/>
		<path d="M256.6,203.3c-2.6,0.1-4.1-1.6-3.5-3.8c0.4-1.2,1.4-2,2.7-2.1c9.9-0.1,16.3-6.7,18.4-16c0.3-1.4,0.5-2.8,0.7-4.3
			c0.2-1.9,1.6-3.2,3.3-3c1.9,0.3,2.8,2,2.6,3.7c-0.7,5.6-2.2,10.8-5.5,15.4c-4.1,5.8-9.8,9-16.8,9.8c-0.3,0-0.6,0.1-0.9,0.1
			C257.2,203.3,256.9,203.3,256.6,203.3z"/>
		<path d="M230,154.9c5.1-2.7,9.9-2.6,14.3,1c1,0.8,1.8,1.8,1.9,3.2c0.2,2.9-1.9,3.9-4.5,3.2c-1.1-0.3-2.3-1-2.8-1.9
			c-2-3.1-5-4.4-8.4-5.3c-0.1,0-0.3-0.1-0.4-0.1C230.1,155.1,230,155,230,154.9z"/>
		<path d="M268.2,155c-1.1,0.4-2.2,0.7-3.3,1.1c-2.2,0.8-4,2.1-5.3,4.1c-1.2,1.8-2.9,2.6-5.1,2.3c-2.1-0.2-3.2-2.4-2.1-4.5
			c0.5-0.9,1.2-1.7,2-2.4C258.7,152.1,264.1,152.6,268.2,155z"/>
		<path d="M214.1,293c-0.4,3.5-0.8,6.9-1.2,10.3c-0.3,2.8-0.7,5.7-1,8.5c-0.4,3.6-0.9,7.2-1.3,10.9c-0.4,3.5-0.8,6.9-1.2,10.4
			c-0.1,0.8-0.1,1.7-0.3,2.5c-0.1,0.3-0.4,0.7-0.7,0.8c-2.9,0.7-5.9,1.4-9.1,2.1c0.1-1.3,0.1-2.5,0.3-3.6c0.4-3.7,0.7-7.5,1.1-11.2
			c0.4-4.2,0.9-8.5,1.3-12.7c0.3-3.4,0.6-6.9,1-10.3c0.2-1.7,0.3-3.3,0.5-5c0.1-0.4,0.5-0.9,0.8-1c3-0.6,6-1.2,9.1-1.7
			C213.6,292.9,213.8,293,214.1,293z"/>
		<path d="M358.5,208c2.1-3.5,3.8-7,6-10.1c5.9-8.6,12.3-16.9,19.4-24.6c3.5-3.8,7.1-7.4,11.6-10c4.4-2.7,9.3-4.1,14.4-4.7
			c5.2-0.7,10.2-0.5,15.1,1.2c7,2.4,11.6,6.9,12.8,14.4c1,6.3,0.6,12.5-1.9,18.5c-0.6,1.5-1.7,2.3-3.1,2.6c-1.3,0.3-2.6,0.4-3.8,0.5
			c-10.3,0.3-20.4,1.4-30.4,3.9c-10.3,2.5-20.7,4.8-31.1,7.1c-2.5,0.6-5,0.9-7.5,1.4C359.6,208.1,359.2,208,358.5,208z M368.2,201.1
			c0.1,0.1,0.1,0.2,0.2,0.3c7.9-1.8,15.8-3.4,23.6-5.4c7.5-1.9,15-3.8,22.7-4.5c5.1-0.5,10.3-0.7,15.4-1c0.9-0.1,1.3-0.4,1.5-1.2
			c1.2-3.7,1.6-7.4,1.5-11.3c-0.3-7.5-3.8-11.9-11-14c-5.5-1.6-11-1-16.4,0.2c-5.9,1.4-10.7,4.7-14.9,9
			c-7.7,7.7-14.4,16.3-20.7,25.2C369.5,199.3,368.9,200.2,368.2,201.1z"/>
	</g>
	<g>
		<path class="st2" d="M676.1,283.5H638l-2.7-17.5h-24.9l-3,17.5h-38.2l32.8-138h45.1L676.1,283.5z M630.9,236.4l-2.4-16.1
			c-0.1-0.1-0.2-0.9-0.4-2.4c-0.1-1.3-0.7-6.5-1.9-15.5c-0.1-1-0.3-2.4-0.4-4.2c-0.2-1.8-0.4-4-0.7-6.7l-1.2-13
			c-0.1,1.3-0.3,2.7-0.5,4.2c-0.2,1.5-0.4,3.2-0.7,5.1c-0.4,3.7-0.7,6.3-0.9,7.7c-0.2,1.4-0.3,2.3-0.4,2.6l-2.6,16.7l-3.7,21.6
			H630.9z"/>
		<path class="st2" d="M762.8,241.1l-2.1,39.9c-8.2,3.3-15.6,5-22,5c-15.3,0-28.1-5.7-38.6-17c-11.7-12.7-17.5-30.6-17.5-53.9
			c0-21.7,5.5-39.2,16.5-52.4c11-13.1,25.6-19.7,44-19.7c6,0,12,1.1,18.2,3.4v39.4c-5.5-5.5-11.1-8.3-16.9-8.3
			c-7.6,0-13.5,3.2-17.7,9.7c-4.2,6.6-6.4,15.6-6.4,27.2c0,5.6,0.5,10.6,1.6,15c1.1,4.4,2.6,8.1,4.6,11.2c2,3,4.4,5.4,7.3,7
			c2.9,1.6,6.2,2.4,9.9,2.4C750,250,756.4,247,762.8,241.1z"/>
		<path class="st2" d="M876.8,283.5h-38.2l-2.7-17.5H811l-3,17.5h-38.2l32.8-138h45.1L876.8,283.5z M831.5,236.4l-2.4-16.1
			c-0.1-0.1-0.2-0.9-0.4-2.4c-0.1-1.3-0.7-6.5-1.9-15.5c-0.1-1-0.3-2.4-0.4-4.2c-0.2-1.8-0.4-4-0.7-6.7l-1.2-13
			c-0.1,1.3-0.3,2.7-0.5,4.2c-0.2,1.5-0.4,3.2-0.7,5.1c-0.4,3.7-0.7,6.3-0.9,7.7c-0.2,1.4-0.3,2.3-0.4,2.6l-2.6,16.7l-3.7,21.6
			H831.5z"/>
		<path class="st2" d="M886.6,283.5v-138h31.9c18.2,0,32.4,4.9,42.6,14.8c13.3,12.9,20,31,20,54.2c0,22.9-5.6,40.5-16.9,53
			c-9.6,10.6-24,15.9-43,15.9H886.6z M923.5,250.2c13.2-0.7,19.8-12.2,19.8-34.5c0-11-1.7-19.7-5-26.1c-3.4-6.4-7.9-9.7-13.6-9.7
			h-1.2V250.2z"/>
		<path class="st2" d="M995.9,283.5v-138h68.6V178h-31.7v20.1h28.4v31.2h-28.4v21.1h31.7v33.2H995.9z"/>
		<path class="st2" d="M1220,283.5h-38.6l-2.7-62.9l-1.2-25.1c-0.4,4.8-0.9,9.4-1.4,13.8c-0.5,4.4-1.2,8.6-1.9,12.7l-11.6,61.5
			h-30.1l-9.9-61.6c-0.6-3.6-1.4-9.7-2.4-18.4c-0.1-1.3-0.4-4-0.8-8l-0.9,25.5l-3.3,62.5h-39.3l15.9-138h45.9l7.7,46.5
			c0.6,3.8,1.2,8,1.7,12.4c0.5,4.5,1,9.3,1.4,14.6c0.8-8.8,1.8-16.6,3.2-23.5l9.4-49.9h45.6L1220,283.5z"/>
		<path class="st2" d="M1296.7,283.5h-36.9v-58.4l-33.9-79.5h38.5l6.6,20.5c1.3,4,2.5,7.8,3.5,11.5c1,3.7,2,7.2,2.8,10.6
			c1.4-5.1,2.5-9.4,3.5-13.1c1-3.7,1.9-6.6,2.7-8.9l6.7-20.6h38.2l-31.8,79.5V283.5z"/>
	</g>
	<g>
		<path class="st0" d="M676.1,283.5H638l-2.7-17.5h-24.9l-3,17.5h-38.2l32.8-138h45.1L676.1,283.5z M630.9,236.4l-2.4-16.1
			c-0.1-0.1-0.2-0.9-0.4-2.4c-0.1-1.3-0.7-6.5-1.9-15.5c-0.1-1-0.3-2.4-0.4-4.2c-0.2-1.8-0.4-4-0.7-6.7l-1.2-13
			c-0.1,1.3-0.3,2.7-0.5,4.2c-0.2,1.5-0.4,3.2-0.7,5.1c-0.4,3.7-0.7,6.3-0.9,7.7c-0.2,1.4-0.3,2.3-0.4,2.6l-2.6,16.7l-3.7,21.6
			H630.9z"/>
		<path class="st0" d="M762.8,241.1l-2.1,39.9c-8.2,3.3-15.6,5-22,5c-15.3,0-28.1-5.7-38.6-17c-11.7-12.7-17.5-30.6-17.5-53.9
			c0-21.7,5.5-39.2,16.5-52.4c11-13.1,25.6-19.7,44-19.7c6,0,12,1.1,18.2,3.4v39.4c-5.5-5.5-11.1-8.3-16.9-8.3
			c-7.6,0-13.5,3.2-17.7,9.7c-4.2,6.6-6.4,15.6-6.4,27.2c0,5.6,0.5,10.6,1.6,15c1.1,4.4,2.6,8.1,4.6,11.2c2,3,4.4,5.4,7.3,7
			c2.9,1.6,6.2,2.4,9.9,2.4C750,250,756.4,247,762.8,241.1z"/>
		<path class="st0" d="M876.8,283.5h-38.2l-2.7-17.5H811l-3,17.5h-38.2l32.8-138h45.1L876.8,283.5z M831.5,236.4l-2.4-16.1
			c-0.1-0.1-0.2-0.9-0.4-2.4c-0.1-1.3-0.7-6.5-1.9-15.5c-0.1-1-0.3-2.4-0.4-4.2c-0.2-1.8-0.4-4-0.7-6.7l-1.2-13
			c-0.1,1.3-0.3,2.7-0.5,4.2c-0.2,1.5-0.4,3.2-0.7,5.1c-0.4,3.7-0.7,6.3-0.9,7.7c-0.2,1.4-0.3,2.3-0.4,2.6l-2.6,16.7l-3.7,21.6
			H831.5z"/>
		<path class="st0" d="M886.6,283.5v-138h31.9c18.2,0,32.4,4.9,42.6,14.8c13.3,12.9,20,31,20,54.2c0,22.9-5.6,40.5-16.9,53
			c-9.6,10.6-24,15.9-43,15.9H886.6z M923.5,250.2c13.2-0.7,19.8-12.2,19.8-34.5c0-11-1.7-19.7-5-26.1c-3.4-6.4-7.9-9.7-13.6-9.7
			h-1.2V250.2z"/>
		<path class="st0" d="M995.9,283.5v-138h68.6V178h-31.7v20.1h28.4v31.2h-28.4v21.1h31.7v33.2H995.9z"/>
		<path class="st0" d="M1220,283.5h-38.6l-2.7-62.9l-1.2-25.1c-0.4,4.8-0.9,9.4-1.4,13.8c-0.5,4.4-1.2,8.6-1.9,12.7l-11.6,61.5
			h-30.1l-9.9-61.6c-0.6-3.6-1.4-9.7-2.4-18.4c-0.1-1.3-0.4-4-0.8-8l-0.9,25.5l-3.3,62.5h-39.3l15.9-138h45.9l7.7,46.5
			c0.6,3.8,1.2,8,1.7,12.4c0.5,4.5,1,9.3,1.4,14.6c0.8-8.8,1.8-16.6,3.2-23.5l9.4-49.9h45.6L1220,283.5z"/>
		<path class="st0" d="M1296.7,283.5h-36.9v-58.4l-33.9-79.5h38.5l6.6,20.5c1.3,4,2.5,7.8,3.5,11.5c1,3.7,2,7.2,2.8,10.6
			c1.4-5.1,2.5-9.4,3.5-13.1c1-3.7,1.9-6.6,2.7-8.9l6.7-20.6h38.2l-31.8,79.5V283.5z"/>
	</g>
</g>
</svg>
